<mxfile host="app.diagrams.net" modified="2024-03-18T14:15:53.103Z" agent="Mozilla/5.0 (Macintosh; Intel Mac OS X 10_15_7) AppleWebKit/537.36 (KHTML, like Gecko) Chrome/122.0.0.0 Safari/537.36" etag="TSZSgd1ZXHgBPIQ1FlYu" version="24.0.7" type="github">
  <diagram name="Page-1" id="Tlwci1VjEVwz0lgoh0XL">
    <mxGraphModel dx="2045" dy="1458" grid="1" gridSize="10" guides="1" tooltips="1" connect="1" arrows="1" fold="1" page="1" pageScale="1" pageWidth="1600" pageHeight="1200" background="none" math="0" shadow="0">
      <root>
        <mxCell id="0" />
        <mxCell id="1" parent="0" />
        <mxCell id="LRRAN91TrpEPsdmhjxqb-1" value="administrator" style="shape=table;startSize=30;container=1;collapsible=1;childLayout=tableLayout;fixedRows=1;rowLines=0;fontStyle=1;align=center;resizeLast=1;html=1;" vertex="1" parent="1">
          <mxGeometry x="40" y="40" width="210" height="300" as="geometry" />
        </mxCell>
        <mxCell id="LRRAN91TrpEPsdmhjxqb-2" value="" style="shape=tableRow;horizontal=0;startSize=0;swimlaneHead=0;swimlaneBody=0;fillColor=none;collapsible=0;dropTarget=0;points=[[0,0.5],[1,0.5]];portConstraint=eastwest;top=0;left=0;right=0;bottom=1;" vertex="1" parent="LRRAN91TrpEPsdmhjxqb-1">
          <mxGeometry y="30" width="210" height="30" as="geometry" />
        </mxCell>
        <mxCell id="LRRAN91TrpEPsdmhjxqb-3" value="PK" style="shape=partialRectangle;connectable=0;fillColor=none;top=0;left=0;bottom=0;right=0;fontStyle=1;overflow=hidden;whiteSpace=wrap;html=1;" vertex="1" parent="LRRAN91TrpEPsdmhjxqb-2">
          <mxGeometry width="30" height="30" as="geometry">
            <mxRectangle width="30" height="30" as="alternateBounds" />
          </mxGeometry>
        </mxCell>
        <mxCell id="LRRAN91TrpEPsdmhjxqb-4" value="id_administrator" style="shape=partialRectangle;connectable=0;fillColor=none;top=0;left=0;bottom=0;right=0;align=left;spacingLeft=6;fontStyle=5;overflow=hidden;whiteSpace=wrap;html=1;" vertex="1" parent="LRRAN91TrpEPsdmhjxqb-2">
          <mxGeometry x="30" width="180" height="30" as="geometry">
            <mxRectangle width="180" height="30" as="alternateBounds" />
          </mxGeometry>
        </mxCell>
        <mxCell id="LRRAN91TrpEPsdmhjxqb-5" value="" style="shape=tableRow;horizontal=0;startSize=0;swimlaneHead=0;swimlaneBody=0;fillColor=none;collapsible=0;dropTarget=0;points=[[0,0.5],[1,0.5]];portConstraint=eastwest;top=0;left=0;right=0;bottom=0;" vertex="1" parent="LRRAN91TrpEPsdmhjxqb-1">
          <mxGeometry y="60" width="210" height="30" as="geometry" />
        </mxCell>
        <mxCell id="LRRAN91TrpEPsdmhjxqb-6" value="" style="shape=partialRectangle;connectable=0;fillColor=none;top=0;left=0;bottom=0;right=0;editable=1;overflow=hidden;whiteSpace=wrap;html=1;" vertex="1" parent="LRRAN91TrpEPsdmhjxqb-5">
          <mxGeometry width="30" height="30" as="geometry">
            <mxRectangle width="30" height="30" as="alternateBounds" />
          </mxGeometry>
        </mxCell>
        <mxCell id="LRRAN91TrpEPsdmhjxqb-7" value="&lt;span style=&quot;white-space-collapse: preserve;&quot;&gt;first_name_administrator&lt;/span&gt;" style="shape=partialRectangle;connectable=0;fillColor=none;top=0;left=0;bottom=0;right=0;align=left;spacingLeft=6;overflow=hidden;whiteSpace=wrap;html=1;" vertex="1" parent="LRRAN91TrpEPsdmhjxqb-5">
          <mxGeometry x="30" width="180" height="30" as="geometry">
            <mxRectangle width="180" height="30" as="alternateBounds" />
          </mxGeometry>
        </mxCell>
        <mxCell id="LRRAN91TrpEPsdmhjxqb-8" value="" style="shape=tableRow;horizontal=0;startSize=0;swimlaneHead=0;swimlaneBody=0;fillColor=none;collapsible=0;dropTarget=0;points=[[0,0.5],[1,0.5]];portConstraint=eastwest;top=0;left=0;right=0;bottom=0;" vertex="1" parent="LRRAN91TrpEPsdmhjxqb-1">
          <mxGeometry y="90" width="210" height="30" as="geometry" />
        </mxCell>
        <mxCell id="LRRAN91TrpEPsdmhjxqb-9" value="" style="shape=partialRectangle;connectable=0;fillColor=none;top=0;left=0;bottom=0;right=0;editable=1;overflow=hidden;whiteSpace=wrap;html=1;" vertex="1" parent="LRRAN91TrpEPsdmhjxqb-8">
          <mxGeometry width="30" height="30" as="geometry">
            <mxRectangle width="30" height="30" as="alternateBounds" />
          </mxGeometry>
        </mxCell>
        <mxCell id="LRRAN91TrpEPsdmhjxqb-10" value="&lt;span style=&quot;white-space-collapse: preserve;&quot;&gt;last_name_administrator&lt;/span&gt;" style="shape=partialRectangle;connectable=0;fillColor=none;top=0;left=0;bottom=0;right=0;align=left;spacingLeft=6;overflow=hidden;whiteSpace=wrap;html=1;" vertex="1" parent="LRRAN91TrpEPsdmhjxqb-8">
          <mxGeometry x="30" width="180" height="30" as="geometry">
            <mxRectangle width="180" height="30" as="alternateBounds" />
          </mxGeometry>
        </mxCell>
        <mxCell id="LRRAN91TrpEPsdmhjxqb-11" value="" style="shape=tableRow;horizontal=0;startSize=0;swimlaneHead=0;swimlaneBody=0;fillColor=none;collapsible=0;dropTarget=0;points=[[0,0.5],[1,0.5]];portConstraint=eastwest;top=0;left=0;right=0;bottom=0;" vertex="1" parent="LRRAN91TrpEPsdmhjxqb-1">
          <mxGeometry y="120" width="210" height="30" as="geometry" />
        </mxCell>
        <mxCell id="LRRAN91TrpEPsdmhjxqb-12" value="&lt;div&gt;&lt;br&gt;&lt;/div&gt;&lt;div&gt;&lt;br&gt;&lt;/div&gt;&lt;div&gt;&lt;br&gt;&lt;/div&gt;&lt;div&gt;&lt;br&gt;&lt;/div&gt;&lt;div&gt;&lt;br&gt;&lt;/div&gt;" style="shape=partialRectangle;connectable=0;fillColor=none;top=0;left=0;bottom=0;right=0;editable=1;overflow=hidden;whiteSpace=wrap;html=1;" vertex="1" parent="LRRAN91TrpEPsdmhjxqb-11">
          <mxGeometry width="30" height="30" as="geometry">
            <mxRectangle width="30" height="30" as="alternateBounds" />
          </mxGeometry>
        </mxCell>
        <mxCell id="LRRAN91TrpEPsdmhjxqb-13" value="&lt;span style=&quot;white-space-collapse: preserve;&quot;&gt;address_administrator&lt;/span&gt;" style="shape=partialRectangle;connectable=0;fillColor=none;top=0;left=0;bottom=0;right=0;align=left;spacingLeft=6;overflow=hidden;whiteSpace=wrap;html=1;" vertex="1" parent="LRRAN91TrpEPsdmhjxqb-11">
          <mxGeometry x="30" width="180" height="30" as="geometry">
            <mxRectangle width="180" height="30" as="alternateBounds" />
          </mxGeometry>
        </mxCell>
        <mxCell id="LRRAN91TrpEPsdmhjxqb-40" value="" style="shape=tableRow;horizontal=0;startSize=0;swimlaneHead=0;swimlaneBody=0;fillColor=none;collapsible=0;dropTarget=0;points=[[0,0.5],[1,0.5]];portConstraint=eastwest;top=0;left=0;right=0;bottom=0;" vertex="1" parent="LRRAN91TrpEPsdmhjxqb-1">
          <mxGeometry y="150" width="210" height="30" as="geometry" />
        </mxCell>
        <mxCell id="LRRAN91TrpEPsdmhjxqb-41" value="" style="shape=partialRectangle;connectable=0;fillColor=none;top=0;left=0;bottom=0;right=0;editable=1;overflow=hidden;whiteSpace=wrap;html=1;" vertex="1" parent="LRRAN91TrpEPsdmhjxqb-40">
          <mxGeometry width="30" height="30" as="geometry">
            <mxRectangle width="30" height="30" as="alternateBounds" />
          </mxGeometry>
        </mxCell>
        <mxCell id="LRRAN91TrpEPsdmhjxqb-42" value="&lt;span style=&quot;white-space-collapse: preserve;&quot;&gt;mobile_number_administrator&lt;/span&gt;" style="shape=partialRectangle;connectable=0;fillColor=none;top=0;left=0;bottom=0;right=0;align=left;spacingLeft=6;overflow=hidden;whiteSpace=wrap;html=1;" vertex="1" parent="LRRAN91TrpEPsdmhjxqb-40">
          <mxGeometry x="30" width="180" height="30" as="geometry">
            <mxRectangle width="180" height="30" as="alternateBounds" />
          </mxGeometry>
        </mxCell>
        <mxCell id="LRRAN91TrpEPsdmhjxqb-43" value="" style="shape=tableRow;horizontal=0;startSize=0;swimlaneHead=0;swimlaneBody=0;fillColor=none;collapsible=0;dropTarget=0;points=[[0,0.5],[1,0.5]];portConstraint=eastwest;top=0;left=0;right=0;bottom=0;" vertex="1" parent="LRRAN91TrpEPsdmhjxqb-1">
          <mxGeometry y="180" width="210" height="30" as="geometry" />
        </mxCell>
        <mxCell id="LRRAN91TrpEPsdmhjxqb-44" value="" style="shape=partialRectangle;connectable=0;fillColor=none;top=0;left=0;bottom=0;right=0;editable=1;overflow=hidden;whiteSpace=wrap;html=1;" vertex="1" parent="LRRAN91TrpEPsdmhjxqb-43">
          <mxGeometry width="30" height="30" as="geometry">
            <mxRectangle width="30" height="30" as="alternateBounds" />
          </mxGeometry>
        </mxCell>
        <mxCell id="LRRAN91TrpEPsdmhjxqb-45" value="&lt;span style=&quot;white-space-collapse: preserve;&quot;&gt;landline_number_administrator&lt;/span&gt;" style="shape=partialRectangle;connectable=0;fillColor=none;top=0;left=0;bottom=0;right=0;align=left;spacingLeft=6;overflow=hidden;whiteSpace=wrap;html=1;" vertex="1" parent="LRRAN91TrpEPsdmhjxqb-43">
          <mxGeometry x="30" width="180" height="30" as="geometry">
            <mxRectangle width="180" height="30" as="alternateBounds" />
          </mxGeometry>
        </mxCell>
        <mxCell id="LRRAN91TrpEPsdmhjxqb-46" value="" style="shape=tableRow;horizontal=0;startSize=0;swimlaneHead=0;swimlaneBody=0;fillColor=none;collapsible=0;dropTarget=0;points=[[0,0.5],[1,0.5]];portConstraint=eastwest;top=0;left=0;right=0;bottom=0;" vertex="1" parent="LRRAN91TrpEPsdmhjxqb-1">
          <mxGeometry y="210" width="210" height="30" as="geometry" />
        </mxCell>
        <mxCell id="LRRAN91TrpEPsdmhjxqb-47" value="" style="shape=partialRectangle;connectable=0;fillColor=none;top=0;left=0;bottom=0;right=0;editable=1;overflow=hidden;whiteSpace=wrap;html=1;" vertex="1" parent="LRRAN91TrpEPsdmhjxqb-46">
          <mxGeometry width="30" height="30" as="geometry">
            <mxRectangle width="30" height="30" as="alternateBounds" />
          </mxGeometry>
        </mxCell>
        <mxCell id="LRRAN91TrpEPsdmhjxqb-48" value="&lt;span style=&quot;white-space-collapse: preserve;&quot;&gt;date_of_birth_administrator&lt;/span&gt;" style="shape=partialRectangle;connectable=0;fillColor=none;top=0;left=0;bottom=0;right=0;align=left;spacingLeft=6;overflow=hidden;whiteSpace=wrap;html=1;" vertex="1" parent="LRRAN91TrpEPsdmhjxqb-46">
          <mxGeometry x="30" width="180" height="30" as="geometry">
            <mxRectangle width="180" height="30" as="alternateBounds" />
          </mxGeometry>
        </mxCell>
        <mxCell id="LRRAN91TrpEPsdmhjxqb-71" value="" style="shape=tableRow;horizontal=0;startSize=0;swimlaneHead=0;swimlaneBody=0;fillColor=none;collapsible=0;dropTarget=0;points=[[0,0.5],[1,0.5]];portConstraint=eastwest;top=0;left=0;right=0;bottom=0;" vertex="1" parent="LRRAN91TrpEPsdmhjxqb-1">
          <mxGeometry y="240" width="210" height="30" as="geometry" />
        </mxCell>
        <mxCell id="LRRAN91TrpEPsdmhjxqb-72" value="" style="shape=partialRectangle;connectable=0;fillColor=none;top=0;left=0;bottom=0;right=0;editable=1;overflow=hidden;whiteSpace=wrap;html=1;" vertex="1" parent="LRRAN91TrpEPsdmhjxqb-71">
          <mxGeometry width="30" height="30" as="geometry">
            <mxRectangle width="30" height="30" as="alternateBounds" />
          </mxGeometry>
        </mxCell>
        <mxCell id="LRRAN91TrpEPsdmhjxqb-73" value="&lt;span style=&quot;white-space-collapse: preserve;&quot;&gt;engagement_date_administrator&lt;/span&gt;" style="shape=partialRectangle;connectable=0;fillColor=none;top=0;left=0;bottom=0;right=0;align=left;spacingLeft=6;overflow=hidden;whiteSpace=wrap;html=1;" vertex="1" parent="LRRAN91TrpEPsdmhjxqb-71">
          <mxGeometry x="30" width="180" height="30" as="geometry">
            <mxRectangle width="180" height="30" as="alternateBounds" />
          </mxGeometry>
        </mxCell>
        <mxCell id="LRRAN91TrpEPsdmhjxqb-74" value="" style="shape=tableRow;horizontal=0;startSize=0;swimlaneHead=0;swimlaneBody=0;fillColor=none;collapsible=0;dropTarget=0;points=[[0,0.5],[1,0.5]];portConstraint=eastwest;top=0;left=0;right=0;bottom=0;" vertex="1" parent="LRRAN91TrpEPsdmhjxqb-1">
          <mxGeometry y="270" width="210" height="30" as="geometry" />
        </mxCell>
        <mxCell id="LRRAN91TrpEPsdmhjxqb-75" value="" style="shape=partialRectangle;connectable=0;fillColor=none;top=0;left=0;bottom=0;right=0;editable=1;overflow=hidden;whiteSpace=wrap;html=1;" vertex="1" parent="LRRAN91TrpEPsdmhjxqb-74">
          <mxGeometry width="30" height="30" as="geometry">
            <mxRectangle width="30" height="30" as="alternateBounds" />
          </mxGeometry>
        </mxCell>
        <mxCell id="LRRAN91TrpEPsdmhjxqb-76" value="&lt;span style=&quot;white-space-collapse: preserve;&quot;&gt;password_administrator&lt;/span&gt;" style="shape=partialRectangle;connectable=0;fillColor=none;top=0;left=0;bottom=0;right=0;align=left;spacingLeft=6;overflow=hidden;whiteSpace=wrap;html=1;" vertex="1" parent="LRRAN91TrpEPsdmhjxqb-74">
          <mxGeometry x="30" width="180" height="30" as="geometry">
            <mxRectangle width="180" height="30" as="alternateBounds" />
          </mxGeometry>
        </mxCell>
        <mxCell id="LRRAN91TrpEPsdmhjxqb-15" value="&lt;span data-metadata=&quot;&lt;!--(figmeta)eyJmaWxlS2V5IjoiWElGcWdxUFpiNHlaZzhyRWNtUGNKbiIsInBhc3RlSUQiOjQ4NjkwNTM5OSwiZGF0YVR5cGUiOiJzY2VuZSJ9Cg==(/figmeta)--&gt;&quot;&gt;&lt;/span&gt;&lt;span data-buffer=&quot;&lt;!--(figma)ZmlnLWtpd2kwAAAAr0YAALW9e5xkSVXgH3FvZj26+jHvFzPD+yEizovhISJZmbeqsjtfkzezembUSbIqb3UlnZVZ5s3q6WZdFxERERFQERERWUREFhERERFxRERERERERERElmVZlnVdlmVZ9/c9EXEfWd3D+s+PD9MRceLEiRMnTpw4cSLy1h949SiO+2eizoX9SKlrTjarjV7YKbU7iv81mpWgV94oNdaDkKLuhkE7V/YMdtCokPfD6nqjVCNXCDv31AIyRZPphYHQWjC4hnIvPFVt9dpBrVmSlouNZqe6dk8v3Gh2a5Vet7XeLlWk/ZLL9irNhpSXk3I7WGsH4QagI2E5aAQ9wK2N3l3doH0PwJU8sB20agI8WqmurZEeK9eqQaPTW23Te7kUCm/Hc7ydbHbbjCMQzk6EnXZQqtsaype5sh3x5dVGJ2iXyp3qJoOsVWHMioa6K9pBudloBGUGm2Mm4fDKS1cnvF5l+KGXXrVRbgd1+C3VqHVtwLi6dH4YMwF3k1fSRJe2t5lIQHBY6TUbhpAyhdPtakeY0o3JIGrt9uMINOiWOmaUINWbmyarTw/Hg+H4TPtgJDiNZuPeoN2kQjUrpl4oWE15LJUBIFVplrvCIVldLjU2SyE5b73d7LbI+GvtUl3wCqvNZi0oNXrNFkLrVJsNgMVNhtNsk1sQGZMu1qqG7FJQq1VboWSXGXgHuRqdOtIO1ru1UrvXatbuWTdEVuiqUQkqIqAU72gnuFtYOsbElAVwPLynvtoU/TxRbdBZw0CZ0Wr5lIjq8nCj1Ap6p6udjZ5re4WTt2HwyrKshdVas3yK0lWnq5V1o9dXQ6suI72mHlSqJTLXblTXN2r8J9XXhRCwg73eZXsIu10rSac3nC6FG9Veh54pPWSz1K6WVg3/N3Zc5iaT6ZWRB6WbExS3qh7K8MxaeVgpDKshE9qDcrMrdQ+/WD+DmlEmKh+REhJu2lQCfGS9WemaXh9l8depoPRoW2o3T1N4TLjb349OD2e7nej8zCrDzeFd3VI7oFbBp5s3jTjqTbNUvA6dycywuin6abHSPC2iKVxqCoutUrtUq2EmWB31XttJdGEeXAvWBLoYNNZ7lRLCKpnOl6TMcutKYVkKa1VD9YjJN2uVQGZ1pcPCC+5tmmEebbWDSrCGAlZ6rXazHISiyseYoaAm9ccTVe+FVcfjiRRU79Y61ZYBXlYvNbos2GqjZSbi8o3g7pLV1SvKG8Fm22SvbNHMga9qMmybFX0Szq5p1brS/bWlNnJPhnmdLSWyuD7s1uvw0jvZbTDPhsANRl0fEraCoLzRW+2uMskAbjTagGXDmjXbJWOlblodReNBnTUt7KBBvc4GM7EulhXb364be64rpfapQEh7bpCiur4sVNbhKuaSYqHcrDXTUtGov2mzEGJpTM4sbVpUmiwdyku2SVJcFkVEeckeCZtrnZ6hQWllo9RGrV3J2PGgHdj1eyy4u4yc7MiPb5jZPhGWOt3UxFxmeiFzea2LqJphtSNdXNHqD8dOe5fCJvoNUKFRlSrTQm/CKhCdgiQ18sC2kRUQmiq2CJifwkBySl+o1q2Yi9jXk1UyC5ssIzGni9U9ttxwuz+KrPTZM9tBp2wEv1aVcWr01fTWsXrrBzs70bbjuFDFMLXZMUssICpVpd1sZUW91sRMMpPsIKu1rjDorZbKp+ZBvqzfstkNFppoVBXlAKy6LSw0qa41T5sMLHQsDyEaUeuVSy3RzEJWYkG1y2YHKQrRSrQ9mfZnw8mYNsk+Qc/ML3Ilrxlu9VSQaZtXi/qy8XSmwz1KSRto9zYCN/O6cbC3FU274+Eshm67JENVrerdQS0ko+GavVQwvfJkHM+m2QwvMvPAldSbIel6SbZODz6c2P2wzK5PprAGxUrPtii6gsFeCGfTydmoNBqeGdMgJabYUJhYMhrL67KeRS7399HIZDwM16iGTu2lZxe0yEUG4dticFe3WmN7xtABLDidEhNmHZMi4kP5MKApaCG/6yxm+0rvVspLufJtlJdz5dspH8mV76C8kis/ifLRXPlOysfK1XY53/txO9qTk6FIpo6/0QaqVoPNQEagk4F7q5PJKOqPm/tRoiCFbsOuVMRIM9kkyeuwu4ptNnnvbrOAjb4a4W9MpsPnTMaz/ojmzjLm5hZdNlLwTnbZ3teqhsOs9WY0nQ1ZegJrtqjKNV1tdjrNOjmvPjmIo/LBNJ5MkQ/bQgnbR4Uqt5shK63aJq+DewJZeqgeJQ/vz3TVKjEUbGEZFadcwNKTFEnK1Rq5hbpYVGmyyBTjU5NbSufPFJc3WeyTaX04nQoD6Soys06qTQYLhGVkR+uICnuVfrxr7YlXZhcGpDIF18bm2PVQaDXWAamTrUBSHW5K4rUq4iH7wfn9yXR2eA35eEOYdDY/t1BUAsAXMv3rBJAuWa/WvzA5mK1PhwNLpGCXVU7iGYOeXWV+1qbVn82i6ZgqsKots0Kw0cZWazOfB7NJO4qHz4F0KiLDjpFMyodOc54060wPxttO/bxKNRQ/SGgqXG52UzI6nF0YRWHkxs7UtcOms48djgAkuox2WV3hNIKr0SjLxuJ3gnqLDdb4+YWEDMKcRakkL9pvyOpkt8Bw9LfP2mlMx7SBgb4X6RoONBslbqvJW2yj13R3kXStSL1VlExMDHnfNChPDmBo6totPFg7xO4mxy91O7JzFXKkiobUyYN4Nty5QPFBqbRKZXzPzcAeSnxbXg06p61jgJSgE9pZNAYXIKeSsHpv0Os0sTJGQHMAlI5JrtZbuPeUpAYcK43WJB7K5LKfAHKMq9IqYu/ag5BBOz0V28xewwGp1AKsXGqr8yJy0wd2Qu3wGDQoY5Ys3dpJXk6mDlNg/S45TFPW3baZuFU2ZFK/XGsaj7WAR99LvHLKxW4LfzbomWNFr91tdKrmILXAKqtUxbsxCrCYb9bDgRecpSr8Tvs5di7j3IFNMF2q0hos9YQe+xVlXW9yssdfJe/ZvK3wabUhfhn5gq3AwxC0oi0Zd34BLFxn4y0vumEvVfAxSZepOxXckzQ7QnGzaU9kK+Tt4DbMBB9NyyxDysdsF4k2HbdFzpCb0vpEZ9of23m2I7yBXZizQ6fHtsF+LAICTbG8mXfTRK8RPCD17HFmrd1Mjw9+DpRsH4UczG4UxRwk3SkWWt1ww8IcscUMktBaykCW1HIGSCkdkWO4hTlKKxkkoXQ0A1lKiCkBpJSOW0aZRJASYifmgAm9y+agluTlc7CU6hWmJwd1RK/MwxKaV+WBluTVeVBK8RpsXrWM1pr5uRaHkghMqYEpNOv0Os4OTVzMDHJ90I9Z1nbGjxMkKXdXq2UqlJBOCrrayBc9sVfWTaeFrLu0qiB4c5CibTsHW7CmPi0vhq223SeW1lFP1l0KWHaoKeCIzZkFwkq1q2NlHtg5LTbl6CHgBucmwMfC7elkNKoMp9a8wLRbY99kV0DCxmrbttimmViDaIBlm0XUB3e32CCtoS1DQTwtU9LrXbYm7cUEk+iM/KLSownuksl65ckIf0QXpmpZ6TP8423xj9/nn4J1WWh8npK+wD9eGxDYGeB+/vF3+adgKIWzyT4NtiWvnqX0vjPdINiuBGGzP1Wevy1FwTEZgb21oLxcA7/en02H55Ve2LvlFsp675ZbSby9W24j8fduFWBh71YBFvduFeBCqz/FrlfHg4h23pmD4UDdl+NiRXn20EHluf7oIKKNPjAHkBuVt4ZYG/29SGl/p783HF0AX8ey45MRzmbx9nS4P6PkCy48D/s0OdiLpsPtteGZgylzwR7vDtoKPUUByGjiEyZ4St50M9803O9vswrm2hKwwO0Qq2fKmkiIO5tegsCaaIMMME8By0sIwuTxytB/oxD51uX+foz2Z01YsOaQqkl6ScFrBRwYhXUfQC8tiaNPwFWyRUAMdp3sQo5+K5F7ni0OAvzLeQAfjIzhJzRCZnJSrCqLwKxNHUZ7kBpun46GZ3Znc0jE/2RIKUqVE8Rwew4lo8MRxewsa1F/ZibqH3WL8yhVqnxby6C40XjlVihwX0ZFagZKWnTB0wXCReJYLzbblQbpUmmtLfXLlYaxgkca3boMbQX3XwKIR9moRTTHKjY9LucC0hMcnyW9rFQyR5HLyza9grOYpFeGtnxVe9NEYa4Wi0B6TXjaBMuvLYenJb2OSRb49eWyiVzeEFof7yEbRBBJb3Te1E3NdkP4u1mEQvpQNlaR38MqHXPifvharSTjeER9vS1+xSNDdJb0UZxtpP9Hr+GKkz5mw6aP3bD9Pq5jy99yl00f37Lpt8p5jfQJtbVVKX9bs2XSJ7Y7Jv32lm1/S+tUQ+R0aw27RXobqfB5e7tTk/IdpFJ+Umm1vUl6Z2l1U8pPJhW+n7Jp6Tx1E4ZIn7ZaOy3z8x2kgvd0UsH7ztKpDRnHM8onzTn0u8prZkE9s9wy5VK52xa8VXwMKZexqpJW1iz9gFCi8LNGehvpOuntpBt0K/1VSYX+yQ07HnpbF35qG82Tojf408YxalTxYEibJ1tPfgpp62TrKULnrpOtp95C2j7ZuuUO0rB2si7tOgSpBb/LdirzsileFelpUuHj7vqpusDvadSMP3hvo3uqQ/rd7DzC1/eQhqTfu4nASe9rhR2B90gF/qz2qbaU++3WhqRb7e6qzPt2iDtOOuhYPqJOw5yUdpgmmb8zmwTmSHc3bf1w04772ZunjL6c3Wx32qQj0ttI98IQC67UmFTKE9LbSfdJ7yD9PtInkU5J7ySNSZ9MOiMVOR2QPpX0XBhi+5W6n1TonScVehdIhd5zSIXevyEVet9PKvT+LanQ+wFSoffvSIXec3UY3iYEf1CXNw2Hz5OMkPwhyQjN50tGiP6wZITqCyQjZH9EMkL3hZIRwj8qGaH8IjKG1R+TjFB+sWSE8o9LRii/RDJC+SckI5RfKhmh/DLJCOWXS0Yo/6RkhPJPkTE8/7RkhPIrJCOUf0YyQvmVkhHKPysZofwqyQjln5OMUH61ZITyz0tGKL+GzO1C+RckI5RfKxmh/IuSEcqvk4xQ/veSEcqvl4xQ/iXJCOU3SEYo/7JkhPIbydwhlH9FMkL5TZIRyr8qGaH8ZskI5f8gGaH8FskI5V+TjFB+q2SE8q9LRii/jcyThPJvSEYov10yQvk3JSOU3yEZofxbkhHK75SMUP5tyQjld0lGKP+OZITyu8ncKZR/VzJC+T2SEcq/Jxmh/F7JCOXfl4xQfkAyQvkPJCOU3ycZofyHkhHK7yfzZKH8R5IRyh+QjFD+Y8kI5Q9KRij/iWSE8ockI5T/VDJC+cOSEcp/Jhmh/BEyTxHKfy4ZofxRyQjlv5CMUP6YZITyX0pGKH9cMkL5ryQjlD8hGaH815IRyp8kY0zU30hGKH9KMkL5byUjlD8tGaH8d5IRyp+RjFD+e8kI5c9KRij/g2SE8uf04SgVLtqM7VrdoXTiqnnizNb7+/viLGlvZzrZE/duNuFfb3U02VJab12YRbHytQ2PKc/nfnRXymPx7PDjBv1Z3+AuKn9zOIgmyvMSnPj27nQkSK1+PIvCycF0GxJePMW7w0ERd3C63ZBQDh0C4lBeFu+1NHg2UROll2bCOD5lvNsfTO6PyXq7uC3EHHbxMfFaB9GsPxyRK0SMNxZHBO/1HDGJiNgY+YVZtGeCqbZq8dxwi4MxbCxz6BS52G7dLb/yjvz/2+U23tkUYZBf3poKzTE9UzpimFHetWaSLlPWjVfPUt5EvNmZnA78c8N4uIXgtCqQuKup46oYcwqI1Y5egPY43plM99Sz1eLQzNiLtFoyuc4urvpYWAe03B8D5MRTlSqBXGYhuJd4v0ztorqccv4W5gp1xEJ2JwejQVn4q/fHAODnmumEoxONYXMlliZkju4Y2RpMN6Uv1erYvox0zVRhidXxaG/y7GGZHlqEx5Hxoj5xzijSi7W6glD2meGY45X0fHo4mO3C2ZVz0A3ryS6qq7alJ5xlOfpcbYQihV19rTjFdeatgrIqr3g2uqD2ld4BWhuOEwLMtEAqwzMRnPqcWihZV/r7VUEKzmcucu9BCdpDO2bP758fxp3+GZjQkm2IBNH7ZKWZ6Lrt/Mrt3b4cL6JpDIZOS6ajakWG78WSb56LpgR5o06fuVbv9rQ/MpFfEwjcQgO4mhrBfcz2oYtnRhf2d2P2Db0wSK+XYnYNvbjF+fTs9x1MZCG/UevLLJlNGAAFjpd2GEwqnVdovbzTH422iPGtURGrfX1kF6Wc0tnZ1cl5qLxG6xVK5N7g66OzNFzM8XnqTotFdczBo0Eq3+OjyRm5WjAonUk5GXtzZyeOZlgitaxP7A2TeGLa7vI9StC3vb9W6ysGHNPORYOaYeKNvr6yYgGZnI/aYTpp6TlpeZm0WM5z0mJhzUmruAMveeEsXCyLRTdSaMxJYMnBcxJY/ldI4Mjh0a4M7OBqhn9Ge3Qjx4PyClvEYgexGnD4tvbWndT93QSPA0SREGVKmEWQNYozpglhYFeSvD9kAY0ghcHZs21PsXQWVXHViVN5S9hAeypFyvebBcpCkrp7yPiSSUdfkFIp3oYUpUVM5mQa1XJXm1jIneE0nqVykb5gKF9eWJfJo+Ptyd5enyGs2t0nC0tsKbuCGDRjkAk0WkD/FxPvD84527xwsR1aNCBjZMJopr5QIG6bqgsb2ZTwDRLUSDDpTvZNpz+YhXPuLm0VM4QUDbjenzJtTvZ5Rm18yOiZtJRCI5rdPwHdjRBx7TEfzyFQxT/pOC+2FLKxczuElLSoQqzu0zq8sLc1GTnysSnQL/u9zSdEYiHgEcSRbSSE92gNYbEVMZkJWfTU+Ayeh25AYR8YriaBAqS3Ho1l80NCrq9JnrI+iKM1tGBdnBLGcWFsQjUaR2K4s9Mcjy60Efq5/shg+xWr+dW9vYOZjM7sTZauN0+XgrNnXimOo1l1AJeMH12bDsF5p9baVQSALkCgL0VRaOywyVcHOKiufTvaAeWsrU2Is7RMJYjeokhWRt8XiKC/i7aspRmDmxzsVwf4tso3M0T+vawhK2kKD2g8Btk+GBLF92m1kBRDQ/0DmihqnpSXrOn57kJH/cGqkw4fpH7TdYoi/D8wmohAhF0d/L8wQwZQeTAkHIkDuhs8WH1nN9r7JtyEGCMcGXCcDswkD/6H9NwkZXitKV6A8hZmUthMMfCBM26NuL0ZW4cTZ8xsaYxfB1BZfIp6f3zAnnghjEasy4ilrArDeHUyHTj35hIIxfhgSwKcW+xK0rkbw0LG27yCfgwFnasLqBA1nUkZJmWMJm/H9BF4DjFlsohklqEfEa3FlnnLO7jXp6zqxqYSEeFin7Pj3+jjnhN0FRG3+ulyjjkJsv85h784GuK2Ti/Imu9MQjcW0ATAaV0vYH/3J+No7JbQ4sF4ZyQ30nKxmCe5NIy7SZWRzLJlu5y0r/c5HSSGbzuBWqp6/2BrNIx3ISYdC7udSSfq79Uy9qQT73AnfpWTj5j2RHPDmQw7M0dCqrkT3g+nGBiHLFYM13uOhXlDc2m6m7f9qyizN/RHYW5GkiaWtH3DpLxj5hBwlXCCbplDgPEPsPj+lN3yQE4Mhew0UCRJTwML8f406g/AWIx3J/cja84xqxESHIh5Bn3J0thkU8JRXjaduMIR29iVVs67zNELLnOsIycMs81Wxzty1jOsbio9OLBGn349FHQ2kYpKdG64nTyqSK5lJHxmHn7oMgFNE+L1DIybGgnQU8buS8N2cqhgZ3GNy+XTPXNk1oc6wQ2SAmdhdN7tjowFqVUHTOVwZ8iGj9LTytL8HGu4ifjxE1vOc+gIAbWU3tArLueSmzwt+bTGk1Jyn+dzncQ4EsyCK6bIRQdI8BfsA0hyi46BVZztM1h6cb1YCmy4cEMv6ajlEpzLMXtHLfeE7hmVvoiAHUPaktBotdJLHvldjF5CR3GHREE9bysFGypfQpQZqCxqIrrY6HPYNTI0WKrYKG0SmTeXGIqryrZ9pajD0+Y6wJO0x42JQfDdnaV5JlAIOEFLkALKTKdYLTCSN6MgqLC9bq43CCG3INtr3d7bvAOAZ1uGHLmxDBj4I/HBzg63W1iMofhrhjUW5TZ+/Ux8jRkxR+XH586InTHnM+afYrVi1s1XWUWUmgcz8VHF8FOPiWM68AXFL6G8CMbahCBGaJ5zYbfOxoCX8GlKW/FkdDCLnGeHkdvOj+qftDriWN5cd10qr7rWawSBu2cs1U6X7gnJ6Jo5ucgLn8QU3Mk+yLFSedjwdNX744O9EHvBRMQK797ZCIIRsYWGsgxwbM8cYBWnrrRo+GIel/bFWE7H6ilqOUfJLfQjlporrcS2Vmg40NGMqoMcW2c/QY3MYRhWtSVBn8lm7rewjCDcjy1i2swz+iWFlZtz5PGhZBc2PnEo2Y6IQO7VrErLqzoSLuHazVMC8dyDdD9YW7PP4wpcNTTbkiu691AL2EH2HEMvt1PavqydTxwItz0mm6sgMNOMVTQH7mOBuCYxM5pYD8qeTLatcnfLGF6WCwIHYDRfZpgh3B1Ueqc3Alb0RrVW6TXXeraaW79e8psARshqv8fVSEOvNN1OueDQhhBL4zNIkYAVO0Cu6A3HuOFtY+gp+nbTqXEUpO3BdAiHejCM90f9C2YxrIgDbopG9+G/NTogxuJ62zcFJEkznHOCGjQ4awfaMnXtaNTntLtrGxT2DdA22ItscI0mbqrJ4l5VcJasr1SoH4xmQ+k9mq4No9Fg004FE7TNgkL2KIPOX7p75QkDlINJvS+RN6WWEv1wb5DEYJN4zir71giTKyR2uJha6AVp05t7L7CYdhCMB/tyIkQMkcvKRgobuKf7yeRvcZNuOXmpp/y0MRlsxaglrRhNDt2uaJqBYnFF8iE5qcdVrlYqNfOeC9tpdJkbrwRknwAlr6ps0/rQMkc3MUCh8govvwpTbNQAE4YWI5agtto8bS0QC6rkRMPW3La/ecla2WXopZuXuRFHVcnp0njs9lUsHjGH2QWLfb1brELbLlbNZaZ5fOGljw59bvJ6CbgghbSqWC/dnVaxb96dVS1akmntUpn72KDd4zKt2pXFspyagyNiIBCjfTGwYkrcY6/TUX7Kj66R662V6lXzEO+YKbrL3uOmcDrp/AQLNch4uawWdNCknjx7YwUDuZxJY6fOAFdYQKtUcW8or7QA9yTtKlsyXLnN7+qmNDZXxteUm/UW6m3g1xpWktFcd7HoladnIv3XMPtZLWox6m9FEh/S+xZTjh2v5bSfIdWjvkS0JdgjOh6KQVcFu5JUuoK0W1NespL8S1IgRmPMvpabBSFH3ptNXM5PoKaT13uqMJuE/T1bZDc2BqxplFdsy4w4AEq8wM6YgNeG57EebGmWZmgiBGaLeTObsjsg1CfnIueqTkaDU8ZkEbDAnq+lttrL4W4MCRxPL1QJ4tMkNncWQr1qRmLL5UMHBDzQaCQSNYyaQN1ZbODYNqO/nayrEXXO4kpw7GzXROwKp4eDMxFbCesXY+cR6jFt6TIYDAnOyQAKsyGmdNbf26/Gk6fcydUqpPE9piAKZQYlyNGgJNFwfxtPPikUpCJZwn4lkF8jMm/q9Ea1E6w2S21Z6tq8a5Ol47HhnXXIpVprQ66h5QmZaD05bX4r4n4j5s70DruBlgJUIUqOqUoedZpfxiQlL8SeoCohGsPulDVa7bIXkmpRd5aUNUBz2FYSbNtSUO9Ew2XY3f0BQ+2Oh+c7iYgYtAlHEe0bs/d4LzPHXRGopDZW/6T93X4cqQXlmYwF3rnPtp88ehopP1e0CE+eyVCPoK+kFvSUsZ3RoqQW9NRh3LJHV9FKFPotmmMeZ+h9GQy47/FGmdaZYb3RU8/NA50qqjd5+mfdZvt7xsMoSUxEwhTv0Or/IgssObvRorrVZS0H0TAOJzszt8uGUgUbb9VcT0zGVmKOtV8HtjYcjRKcn6dsXdwE8otAmufsWVVS2W+Suq9ZDjpIQ/2L5g7bFCtzg/29xLki/6samVzCs3qex7rNVWVu2nM97q9F0QlF4uNspqR+wj/kgL3XmzybA2p4wGJEb6aRMWPGpRD6f83OeK4+mYxHQ25+RheSfj+Fu7RLqBGT4qSAPO8jtu/AOWGYitclFakcDPiXE7Bz9dOKN6YV5oSfVfxKUiHefgZ+UwLO8cPBw7JB/W/r2AAHAAWFeJX6kJ0GA7OISc2f5mqEYYF9OAezTAn0z3JQ4UhgH8kdC1t97FOsfkrr39eX5HA1RYXLB1CakIVqg5hKq7+H7aTYslsQgQW8yaYE0mL1Wl9/OdEA469mKvBxrZ4DNQOdX1f/hlzaIB93+v58RaYzP2DBqQ3PaeAntHqlC5jNq+9L9UESXIJ6vpPXc4vIjtB9kOrPJfErxCQG4uNuB6nZVX7KLOof8x2Smfu/kvOQZc1WfwIxlm9jpH+dEItS/3hFfVLby9DyfKNvZFRE0pVoJ1bP9fWL8KdzYOQbq697+sc8N2qRwlu0+r6saG2JzA8bsBOmwCVg9W+5j8K0JCGudhRzGgzGMjHi1b8oiYgRgLENzQB/Yp41jBkXQeIvxOpfPP1iojaEN0vTaPVgyxH69TROFkqwjTHrr+k5EPG3T2n9dWPbEw9gkhTsEPaTBjXZrVVR/b63l+1c7/DoPHdVdHWSt42r7AL9M9P+/q5sBLg2y+qaQyCLeDKFJq9Ql9W1h2EW9dSMtVgaMfjcD7Yepx52CbBt0ElrNlk5cq+kHq8efhHQIncFXmZXU9eoRyR5W7UpxdxF1nXqkfMQi3Ya9yS5uxurx2UlW/09IqEG+x1X6d+S5G3V9xpyoiSv0urxScHW3ec0qeOg6tVa/UcjecIIw/6YaNDe3mRckxATfqSEUv7dXC0O0vnZQZ+zbIbxXFZhilIZsnQjGQcrLI/1g3ksu7mKvPIoz8ujYJXkkQHgH8qDQzwOluC90XRC1fPzVY0D+37Yvl2eqh++RKXTATUjiH5xLRdcxttR59SP5KvL8rb4vHphHpbue89RP6rZ5DFjCfGx+iWLmdqJD4LRZzz2ovUG9YAnjhHlFqd25GkIafXnCbiGfCj/Bafa8zWmXkJMf8f2abhjzTn36zPzIOPHvMtT/+DJLHXZsmsmmJXwsaj+REsNG+RouM0mfKj2xf5scoYIxqA5bnbW8F+RY8ys6D/VSQW3hHM1H9bpLbd6wFd/p8WUCLX3++pjmWIJKMa86+cb1laHg2HW7c8YWMde1wvo6eqVCCLe6A/anVqHOkTxei86fB38I35sb2zc05oNNANZvzD3UmfBZa32P40bgLPGpi3anAV/R/bIZ8llbcXTaZlG9pfTgq38zhj7RARhRVIL+i5inekLoKNpwVY+cwB7GET0ZKyW9bFc0SKU9nD74e0ySS2oItlq3LRxUequmANYpDWBGTP6dk/9bs5faNqxMKwrLwLapuvYHM55aaDqqnzZomzExptxj2+W1Q35skVpWJAxg+ph6qZc0SLcZSGsIvUIdXNasJVtWza/zn2UemhWstXhDi5O5vk8Jiva+nttAwsSjMfmARbnuyPjY8Xq01p/q8vbml4mmLKLzN52CGQRd6Tf9WiyF8m14De0vj0PsDhnbM8JULDumAdZvF15ucA6Ry0n+7VoB7OaSR0Rv0znEdoi6EMYL88wViez2WTvElR+8jDOpQj9VIaU1QxlS91H2VnK6NxPH8bpTPAlqM1QXmFiGjjdrN6YTYJRI36z0n5Gjg6lrUPx+ed5WxPxahjfhvFQgP2Cg1luU/BrHViGmAJ/0QHNmFLo6xyUyeW8gKLLknmDA9KVVVqG/csOZrtKwW90YOkqBf6KA5quUuibHDQ082vB2N+8UH7V22WLsy5EKpOZulndeCm4VY1WLL/uFCOjVhV7gCvYymebsoyLHQIezubLFmVkQK3+QPYaUPbyZYtCh4DKzASmxyxStabOG+DJA/tr2Q11wZRtbYXLblPcSNl2BOngz20Vxtx4P1nFR20FkRX8wZPqL2zRujCUP2bLLbZD/IRw+BxpdVL94xzY9F8lFhTD0udtVZ5xW1VR/9FV7Q5HA9d0fTqRX3N9wdY4tswUAv1Pc1CrBIC/aMGGjKEfRqMdhPMlC082fJqomvpxDmsA27iz0zi6V6b+PJP+ExZsfr7bUH9gS45nN1P09D5vbzhm0JF6d0H9oWzySeH9cy0MF+gIR5uZaqm/4p49HKPb6/091lJ/KgvsEx4K5G6F5bhtvPwfkwVpL2hDuapIK16cVazSz5nMzmH6flxnpIwv8RmtfjYH69CK2+ZX5UCV7OL55zTBR8ZnsO7Gs8ywWngL0fRcFJpbGaXVb3IKIcJofBeD3yaakoHkV8gr6rcyXonxyS3z57V6p2axJJe0HapUR/1OrisJQU0OZJbfnces9ynwn7FJv6spJDW5EbxHgkRc65gyuyxTO+rL1eN7cx2E5gFuiJLNSubRrhiZP8tYrWakY/U2X382qzJTgYRMoFG921f/S9ubGuOKv8jTH3JliWTiDdnrnBd7+m8S2UhwARrq5R6Xmiks4MAP5L9nkBojNXEB9SpP/XMGN63ZetmH/0cGpb2FfTWDldE6Jsuwyr7q6f+T1YlLlt53vNJT/zdXxTDVqz31P7x+GpSOMcz6v3l7qAduoziIMVZZP9cnFnDoY01H1X/TBtpFX5yxWFb/k3kxx5ZLvER7uybs9aDVmyxOOFAv8dRHvTGL4ND7uLdp9RWYH0Tcfm6frbHJHeBfqlf56oe8ET4tintuGN1vcD/kc6NjmHOuKh6wRr7OBS8jMBlauhv9HLfFg2jSQoW2WGpEx9SbZXXv7RtyH/TVf0ja0k1MTFGW3BcL6p+8+008Wp7ncehHiJH6gKdelgOX7bc/Fpl2C6xYCYQHW7NplHwa5P2e+klXX+5vc2oqQTBmltRbPKbU1lTH+wez9KL0Jb76eVch2zzXgizE1zjIxuQcVsyo1fs89e+xRqcNPMT2nxW5M+pfQkSyQBCDY4P7e4tmmoPyBUeuHs36AxHFS331AgcLzokMOYnoH3GQFp4Fu8uFejQ+sAb/lb7+UVdpmBftaTCHRoNe4auX+UYJ2pP7E5Mdq096eMcGjLE72BvP1fymraGBVTkcRY+YhAFa9NOyjRnwbxGsdAsceybnDyZ+Z2geNsgs/feL6lssOU5b+5wZE6R/9mKpCfcjjPm0MRFVWlE/7JsHZtjpD2n1vy1KRyCm2Ye1+j85GHEu9lj1AncGivb2CYFJ0NFddfyoPxhK2GOP7hFpdYDx/8/cUsiJrz2ZzCh+0RUTWdDqS9xDm1Y1UyNvBIxU/9lTX06qHEGz4X3VU/81gdsmrf5BjJH9mqe+gn60WE2VoawDmfhvWNlwqg/GB3trWAu0Ub3aV//bGmQqZKhJxWt89YNEzNgJUfQjJmNdmGf0zadVxixyqB7PSrZ6VZab3dmCNBx24iKgRS5HJlrMJJrV27RvTS6/GGrRgxgLWsXYTc3rXIzTdfMQi1bbGzKe2pAElOtJXMlW12eobAclOctuAMJD8mWL0txi+c19jOgx6lGHYRb1bpYVGpb3JvEyH30x1KLfQ4xhQOzffL2H/tQT1RMOgSzis6wQQmIbwGL2Ef1t8yCLh94RBDOTEIsb8zT1xHmIRdsaGQWRyHasvqb1t+fKFmPbvrsWHSAIr27JirZ+sIOaofnxWaJMZg6ZqvgioEXGDpq+J2vMgVbsPGnRIpyzY1lF6lYvkvZg3y/RSxbl17V+kUZyRjdFC6h7iY6NG5N99OBe9QtsInI0CvdYWruIhkl9rcMjZhITsNhSb9C2x44IJw431yUDwV9ziEwU87RNTDc0Nv972J62MxjcQ+Q3uM7k4tU4qdNonCyuFTZCSyU15c/31Lt03z1ZeYGn/iDZJm00WMA1MwObbpMsqvfpMW0JyFE06/4rWv2hifWODr3T+4JW708qxFsRa5cgwOUfJXWZdKsiRUYiCF/U6gMXY5Sy13Bf1uqPDQLKYQzafeovjSz6ODZTLphEju7WTA5gpTFOrEyAbMmfsv56GZp0idxkPk6qv80IyBWVUHgQAp/WZ6MLROrOnEGy7/Vxg89NcD8D2Ztau1NCucj7H7RwKrspUZzd1WhnMsVNJRAoA7xP/2d3lVHDi4jVCz39X/SM6ZbAnkhevc5X/5UJgdHdJhcdrFMYxXGZYBeJcpKHkR/GCYln2bnhhQTBtqKBIfABH6+GmOVuPcIAG9BrCuqlHkrBPMssw57TJLacn/biIXsEx7vkwqDVH0cjGe6rvf42IzGBso1OvSbL4z0FfASJ3LWxOOq9BfVrOaSae8nwVu+coAAx3b+1oN6WQspYnYM9Ria+9z73Y+o30jo50q5eCPEAqPmox2VGUiMwKnGcC/qdeSib4ge0+u0U1I6IKKDLRhlfVyDqmdQIK+ZaK1ZvL6jfSeEdZnncwFTA+KdTaLg92QfznQX992w1bMkXUJHz6uOe+rxn3imE5saIRa+ez2W0e9r4Nk/9uL+FjjEtmwklmBwIk//LO1QD+MsFLnq4SGJ9WpsRnGdjGUgtE/CD/hSzkaCfQt1X1PN8scmTnZ2QGTyIRVKfLKj/5MEC7ZKlJuDPeuqPHDjxqAT8BY9p3xuyMwuipaIeKKg/ho/czTTdf9BDg9jQ8T7f6qk/QQ4cB3G7dnAm1AcK6i89q6dok1FpxvOARkTbYoPaNq6dGcMPFXCpphZqnYQV9TfeYLJNiJ1Iep72Bwvqb6HNhRCTkH++EeMp689ab6cE2XPW5+Hezgrnc0Y1S7PZdLhFWClWHyuofzSjMPNphvKpgvov+Nd7uF3p9zZ+AIclAbnvazxXq/+JRNAnLsViemIeFXcO/iDa6R+MZnMVjPw+XORpHsb/zV6o3uPhyLYvWeV5s+GMAa8oljxmOr3a9DYZYXZE8Pw+m+Y+RVjQewyoX5vIR2iUx8nGTJZfF6gIBQJqWd7lKv7XKnVDecWhO811efoh8F4C9Or202J+t+FyBYcmxV4KLZpvX68126ftk5QFU14tlU85wKIBmAd+S7jEOODGp7dHAm+BSSUCNMRhIrCodWwsawbI/5gWH3ItxUZOjKwALMw1sdDiMG7aZra8YPutuK1s7rzjMblYKM7u8h4Dc282ALJe7oWjrI3sdx8f9LSerwyouQCps0bTsveWyfKsuPWV0fgwNA7VBlRBxB9jUuz7B/g5l8MRY5kaIYvxEU/5m3MQ9ch6NZS3PMhbHX5gp+VTw+tt+TR39s7Ny4DVRsW+WPOTp3rJe7mCfe2WtSpagHsdl7ykl69e56D2GdriPDB5grY0D07fqi1vVsPqak2Uyz4DrJQ68pxpJXk3eDR9xXcs/byydGWY6B0e8/F5HNP7RUgnMiTLx6VpXXYR2qXJXb7abFcASIepCK9wQNcyhV/p4KbHFHqVg9oOUvDV5st4jU5PPo8UtDvVQPq7xoqy3OzK89jcLF1br2YPNa+T15hJ4XqpSQV5g1SlpYeY94rps8obTTF5vniTKRk2OtVmQ7q/OXv3+FBT655gPqx2+JHlI+Q9WtbRoxLdlQ083d2zVfKx3CrJowTUs1TSxQCU5cs+mq4XwQZ0n/LK5OwOTcMc7U9Ae64uoEKIsqpnOGZ76l0FoeeWckeoctpnM+Jsn99LM5KfguSD4gUgCfnhAK6yV8gXkRY3DvQc2c9cRNbhBCBkJGOAmEmvZLb1lusANJWR+hykLqoPqMzI7LsK4cyiVmfRnnFhlOfeA6rVmv1svCOW9yGyzr6YdparD6jMOhMgAYSkpwSPfWHcN16XfRf7eTA4MWPDG8yYmVd/RtCWMzS79pc9VThHPMQUvuKp4t5BzF4tpX/y1IIl3UnRPT2TfC0an+GaARtrETYTCh6e+wxflI0gq62nJNkwJngpFWEuhqlZB2r1GFSvkg9qpHEQkZp9LdmxH8DTDi8fFNHJLy7m5O8QLUEXJRFyEFH3mJWPCude5rSjHeUVx8jIbgawj0sCr6yD50z2tobRWt9+KKBhxetv55s30obfQKT55/7F8qXxVCEz1ipvrLX8rKhdrbCf9ELzhwp6sAHz1cZG0K5iXaq1mrUptsKf6yF7YqS8QjIEtxif55tdcNMU2BL9UXSmv33B7e6dKHulUpijWRHhLFshj+3wiS0h6/7I0oLw4deJhX0zR655VdoWZzKpz/fVQl5Ai/tTefnGGcrQigmyqaU8l8tzvFiw50twxuaxXTNYt4VXafsLHFtC2ecad4QB+dGa+YiWETuJTn4yhojZDhrloCe/4wIw37p1iFH0meUqJw9TXNF66A578ntIB32hr71qDjxPBBoz4elFvpJTMHL7JsgdwVSePBhmWRhvQ8EvPqV8zV341dZdC+TojKNhP5PqvreqzO/pSLUMuxdUUCX70wqv1GET3AgqaBUo8vXYsGf/folU49F02SKlp24e7t5xm6BwGgZRvvtyLku22yiXOgFZ+yRaNjAKnm2WGay5H9zY/CaRAdTIgFzsuWH1zj9tSjIdBNzSMLUVzWKpLBsrnagwEN+sY6Y1m98KW78Th2+AvTCo4ZiYWuelkyvCqkjKeb/5zrik5OQ1mUoUAT338LJNBtZnaCSeLVk3RCOZDqopq95y6OFErAfi9jRwE90X01W7Wk7/0oibwnyfMkDW374DOUnk+xuCYTp4OQtxuG34KVjOOAv4uhgbtqNB08CoZQl27CMj1s/iLnoGcAkTx0bJvfRkj+2S6dSy+vAe5u5r1GWde1pBWG5XzTfuVLklE67dp9+8cijm1T9Z2iylOAWJdJAWT4ZmfhaM13yXgBZb93Q2DHBpXczzcmjAR8LTVeMYr5xqylt8ckfb3VAgx1ZL5iOGxzl2ySeVjdxOVOX0QdwwyAW7Mab2kX1SWUHjkkp2MxJjjUtE4+RTzw/6XpeJ3ndA5GTNqax4T6a3RtRICGNwR2TRWqhtHRB8sNdsr8fsDtmr8JZE+smbTPlJRNQ4IMQ0pVRYzRqogvFgrXJ0G1lBp8cMtrJezX5r0Lc8jO1JxzsyImvIvAmjEsthEetbVEcuwQIbssRb0nACZ3QG+GZfLQ/mQW9Br+ZBIlGMzFt9VRhM7h+z2eIQpp0V0cEYWUTj7QsZdEHEg5ins6aN0hbVorzGn8aG/+ZOjXp0bqmS7UhSYQem5xkQnrTUmrGqolEGxKGcuBLx6FSACcQzPthd3aYxTv5GUKKaXCG8lDRU8r1zVTOfJNRt82VPPIx5NM9WK1uNp5KvdtLCutftZ8pBUcHdaT77hbdgJoFbrziUfVMzWzR+O2pkK2L1Ll/P/6gwZmJxbOUTVXsgOwOKgIsp5cBQ8RaHWQ8dwNzos2+loLmre9Q2rcjd3PtsVZ0sYIsLeVG8tkgcHQ2QBuLl4YTRbmFPoikbXAkAoryY8rbpDh8d46oy1wz8fWzs5cmYMBNE+qOS4UJ23b7LIQSiDg5BPIXsx/glg6K8mzI2xAizNBFnBuuAqjbxkFNIfpTcoLO7G5y7VSHDEe7tgHKjDM097KGHCvKjarmpp96QactPkhOIfXaxJCGd0SXD+ssXXw8cyTrEN+DWnsjX9pQ4J52tWH7XuC2XerWsj7J+pn2L4Fbcljo2MzJOJG5EcnwetinmTb2+oE6YCXPCfMBTl0HOdd+m95mNpyUcc5GHiRx3p6PquBHdz8EL0BXzpNU7fHXlPMisbmbvKtNZeHa435mIiJHv1Slo9UJpz5wrltU1iNDOeUwzfW1azHTknb6+7hCrVgo5Xq8/hFBNVP1clHp9Eq+/YZ7bEExzYH7IPDw9Nt84Dwf/lHHsbkqVMwRDIpUt86KDsJXb0A8FK/cTXvF63GqrROZhjiqeCu5JfsnGBnGqgU+T+RRihvTdq827e7iJ5L1WeAeJz47awdEg/kGpAFeOKkvqbHRB9vlYFTXLw0BdX+/B6mzAtH107HkH5jd85scHDNarIyV4tJaTrvJ/HaXZuqdX6YqNS9xAiyw2SBrrPVuOBl00uTqArpeCVi+kQH+H8PUpI8RCbDt6n89ZNUG1iFVkeUJMjIMmBCx8MWCftVc53jE3hni63TW5NF7sz5LXzbaicL+8REDnirs2pI0Ni4RQB4lQv5jiV+WltHsSvbTDukUr8zDx3s6xWuTu8Ai3vmeGqKvsb5RXEHxu4o+aHjatBTcCOIbGuHcsnn9gRgVUDttoUeiCsALiQAJiNnZAfo15w1akD2u8pQMzNp0MWjybhDXi8HlWCpccX/ES41uYxzzt5HZYQIkUlzZhR+4E8Zm2++Nz/Viu3SL3YpWtZ59r15Fjm0XomXIlkgVrItq20brVwkJd/kIP2+W2jUw/QWlbb4jWJtt9M54t5eXAIZsnq91+Im5wmKKltGFeF7UxrDRf5CzPHcZZIg7gECDYN+sXquEh22LePkHF3RGnptfrMPEsLfzwcywouXcwPxsi5/rVu5MZVxozV/RiDoEun9iAtLGdzeLElhzWNyPAPFsDVE1M3WTs6gqu2SqGf58z7aw6kJ8VFdM+w8yilUxD27v53S8O9RrOJbrYmezvTXDxtrklEI2EH2xdzhoCQ+HmYYYSqjd1l4wJXCwqPjbnskswIZV5Rmzs/1/PCKSsRTnEjNAFH3Y2WRKTUNyqMneDZyybXtGiNywaZIdxC+nTpWhpWghFkYH46JGEQWQ/I9ClC33Ds7yYNm5ELOsVXcJLYw9iWgah9Iid3cKPcuxXpB83zURfCSh00q0rdTOxvdlVkmoHBJHMbZRGFMbdF862iF/Z0WCDJ7grprPP4EiPo/vTgneRMlREGXxyidoAQWmG8YbFrI4b0f2HhoD2DFLmPitBnySwMRNByzW+UF2sZuBE1Ig5lpLpRR/uNmEvnKMDd3FCJwcumF87qy+xX4i1LZtljbrE86vf2Qu3GswvZGSKXdmcsMKkBaKLkzytmdcBfug3bS/lMGnTNkPcwrgCFazmtDwZi8+N4lR3XBsUjWGUo9GI2HVVIAsphLO5gSzOz2nLDFX58q14rhjMiVGVuA2xWcIg9XqVawUpePNNWQvmYQ+S2TdUEJi8pD3DnMovF9ghE2XF+IYyOUSk5aef2IDYMJZI3PxIPVE6S119DqW6GBxChlvyL3O2zJMvoPZYzZS+vzWvh8lSqHKelS93erHBT62snwzN/u6b6bq4a+HoEoyGKUeOqGMiVv/EgWuOSWP8iYVnmwt3pwm1NZGlJck6WKBRKq9YfcXXi9QRAbOfiiEEiCJgchA4+x1bWceWvU05V2WBMjnsyNkhGpQJ1KABNNmI8CW3ov6MKWX9BxIJNEE9tcq9VlrSXfwBOhWGvIfH9AzPiHMRzU+IwqnnXFGC2xL9eRZLXLZte1Ipyl5s9uwPs5r34DNSH/FVthjUfXppskVH5xgnxm55EOEnRA1L8wi2APNgttBYfdTXK1bEybbJnZUvH9h1tr5pJzlWH/f1Mbqawu2KOm7mLMHZsIaAlXBiDt66xEZH8/vk/OJQEvIVkSwm9fJ9SpnSxOqffX3Fdm6Wvsq55dzcfHzNV1ex7E9Pib4hu6vl09lrnB5CZhsl0uqanElKTFusPu/ra2dMsDNFX/DVdVIMUyl+0VfXp5NSMltHyETdsDPZPoib4w7Iri2HkN10/r/uc/RIhhdmO1rJUK0Ix5/09U3nhpfY1j7t65u3R0OmBzGtqIearqAiL0LQs/vUwy5FWfbKHPVP+frhqcARgzQORpE45LYrTAVU7UTq/ngyviBK1E1Axmsih73E6nAAiy1zeAAhmkNorr+/e9dBNL2QizbPnTcaHUJAXJdyM27+fp5u1brrJiiEizZHAasSs5OL/9ygV/rk9LWPAcOcbCXUn1tQvtRa7uN04j29NULPTeTQWR3WkZ0TfEVGzywSwjBLx/raMonuDm0JJ8HeR2HKZsDb0Z61/fYqDM3lZADcFP0ZOZHPoirQ0aq4LEW8UblGWySghtq3WVfIexAC7YDNwPb2TePFGFBXvhrJoaSe3cNhqTIWaCAKDhKdSwNyWIBvTpmtP5xN9jlqQCJ1XqaNyR7nGjt+b87KDOOyrARCnNKCQI1rYRmaxx1nVF5MUKdsFHN1OukPtmGKG8457O15ub+AFjN4naoXMn37ST/qJQVsdmIXWnmwvfRULyqohTqEkYXyHilY6I3Od+VhHkzGOJtOK9S7PW3UOil/g3D7UGgLQ5dcBv/iq4cZDVIv1HpBcqv9GFtlt7Ob5f6uP3JWc9G+A1QFtRRLHDXE97Q1y0m5I6w+Qx1JymWcCToz4GeqFfOuDraL6qjJOo0lEGSKa+nZ+rjtuNW/MELUAE7Ec4tGLqafV9CX5QafLonnF9TlO1DatKdWhnGFoV5F0VhlbFcXmgezWEQx3h5h8YlTyR6JLlxpEFuI3Viaq9AUYmvY0xFb66g7Hoi12j6rXl7Q1xhQO8qBrt1K9CJWLy3o66bRtjWdYfR9BxEa5wLsi+p608/qFDXcxT0nirAGw3boN5i6gDASdwMit7d56iH7coC4MN4uMY8YI9BuTL9JwS1rZM5Y8rnpm/BzZxfkMWnVXorWYIkRPHR7NNzfkh+Opca9HZ3h31h9qaAfDndI0lmQ2E7/TxXUI/C/2tE+Jh0hle1cQuyRwSXQ7fnLTcYhe3S4Jr2190TjLCzFzmm0hcXqFQVdkC/OluQJf65rjrdnGDhTlXxuDZKV4c5OefdAIkQrGSkshdbWn1xQ3sB+c69BNYsGH8O4zFWhVLB5p9lFW6oySJYRKsnwF7aFelwyPydGMJ1d9ERAdLG4ReBTFA1JbQxZeNPt3Qt0oZf2L4YtXwp5nQHJTB7ZvzR8RcaXLAxvYcwQkhFC0m4HspgZo5NDrF5Z0L4UV6U/QStsSa5lemjMUyjuXwq60E7eGxudVJ7744eVHonZ4FTyV8R1ilqR5egRRyO/YWMzeppUGjqvLuBZ9u0WLtgGqFZWuRQPSrJZqrVasyRbqg478mcIyXmlWrVkrvXMtSkZ+exkOwjd31sv1s2l70L+wcKifdAkDxUoLck9XfLGYbna2ISiYB1JWGlH9vifsbT0zVlKObF9F/N9L8z1vZjveynpsDS2F3xcmT3IY4IV5e0w5a7EwYe7nH4sFxMF4yBb+LNUMTq/P8VKs7Qt6I3sJXvuCYB6c4GN2D3ltZAHuOLaYWWHYrEt6C0FtSwdy+gt5FVE+4OUbhrVV1fKq7/0mtv9aWxblL+LK3/g1L4xs/eE5uq9ZV6j+ZWq6Au5QnBXt1ST+Sw2mh35G+Pmo4ALXPyHvQ43/BQW00KPe/IEZWm9HaCCbVNBeTlfziMesX8gbsVM0VF6ITlmJ6+6Jtwcp1XD/m3kE/BrPg7YqzWbp8xLhssagfvM7uVVuGh3OxuCeUUmEZQ8SgupeN5QUPK7DwcuTc8cyMZrLgpSpa8nM2Pi3syyvc8FJ1sY4ODCGXis3lTIHtOtJfNGayKJ+MWcdWip+/Ga6IrkUyoym7iahozcp+gBAKPcrwULJuc1/nV4LEnTMDJv82k9FAupx9Y24qHNPbNJ8YXIpvTDDZlmyGa7fkeO8QwhoBYPWD4JJI4BxM/lcOYGYB54K3WN/PXGkIB+IDpj3s2Y6wZ7F01gYf4Rp7xy6GxkjxX9dbNCC0JFXi8JTtF8+dUUKS2EG/IH5V3JrldXWEJpmuZzmss210tswRH70cu0vOLKiWE4mj2udN+3dPbAfuAyfaV5whTdy8vLatX8O8vLL3qIeYU8LDHPF3LAKzNgekV/lSGLahOLYX3KoK8uI3J8iln/fIvrvh15K6n804F891mxYNpN5gOBDpuC7dnXGv3RJnse5xGnj7huWp5TyA9HVD25nC61O9WyGZ0OEQIdkvUapU0Sv+Q+oV3YkD+8Vdy4jX8XNm7n38WNO/h3aUP+2Nbyxp38e2RDogYyXyvpzfjRtSaX5ZI7hvXByoRkjwvOiQ2BXsZWQHL53MX6FeaR1ZVd+feqetDokl5dk78+eE1FYNdWOvx7XUVGfP1adb1raNxArlxquQE8pM6JjvRGTBfJTWLAbw7q/PtQUQYj+4eFdRSLzMOFq0cw40LnkXfxz6Mqa9L60aXVVWHzMe6JymPb0vPj2jKAb3HbwuPlb2CTfmsZO0T6BCaO5NvCkvnDmE88tSp8fjsGl+SW0AjoVhnMbQK4XQZ3h/sji09aNX9j8c7ViszMk8OWsZRPMSw89bRJntaqljt2wN8RNrtt83XJp1frMp7vJI4jI3xGrbQayLi+q9pomb/B/czVbqdj5FKy75bIrQr/7mEDC7STTF6FvJVhIKuphJkmv9bsdiytda4Bsd1mJjfq4Ahb1bVqUKvYL9afrAXr9n3YKdk1ZCg10eW2/ERJPSvRu4a9Y7yj1GqZiz7b582rpQYmgVyZqGOrFjD/8CDCrzjDUW2sCYHAjXbNzfQ6KitfWLd0Noho2Vw1DEpt87dJT+bfdh3L9P6hrPtuvZEq7SOJDRAOcJQeVanKE/Sm4eExley7649NJPYEaWmX87fZmXiik+stkqJWwueteGDCxW1sadLrk1D9/Of8n9xuniZ5CklC+Knkhbbh6mkdeV9H5hkdvJtVo2SldF51eSMon+Lqlrwnn/MuB0a1faySqFYBpruOk2KSz7VZSGBii0W8i6kaLCUTbvtcTjCOhOU2t8YWumI+iyq542Gr2kj5OgHXJJeToM1GK68QtbK9XtlpB4H0Sv4q5nu1aeFXywhIrxH5WdC1wiDpdZLaPq83nCTCuoEuBJ3sQ4Qs6Y2SOlI3idRwaMiulrjqFrxTtabMVq1eat/VNS3q9rEiOfSsbsbTNNiVaskit9LcXVaxLHtH7R05ucvmbNnDMpP0cDclj6iwBB3s0UG9tYGRlR4ftxaYCPu3YMjsCn886yhom78D/K3VRggbttW3J8vudtFns3tQuDNMDNt3YGyYHPuC7umYHK50kuJ30lLE/V0yPtJnJkeCtmgaWty7lUKYFG6j0EkKt1PoJoU7KGwmhSdRMKoqhTsp3C0Fw+M96RZwr2wmduq+O9tqvkfWr1vaFL9XpjHoOVndh0OwbqxKr37oN3KeHsSDsvzO2nw2U8sZyJxNrQcW4auIJ/N+PJl8VQAcHyb90O2OwOUkKnGr+oSD15C41eEYgF8Wt73lfhCnPPcnF1T2Jxco6ArRT/Ea55F97GGpLNbjEn+pgZJXvuQP9AghWgupzK9UOk37uxTK2mQEIjUAvBLmNf2ZXXY8Kc4dT2Lq3Ztj/L9DB5Th2OWLhAsNYmk67TtCK7o414N4e8bvlL/akZ60UD9mn4xO/CqvaqbUtzXJK7rCRbRwKWdC7iM4uudMjx/GlZxDM7+szGb148zqRfUBlUyt10+ADNPR+yj0NvqEhHI/1EzQE03Yzderd3kXt8gx8AkYCAj7GD/XxSKjpEwDuar4DDjxuL8f73LdoD7NQSJIMRwYijsSzrLIWbUQoC426WfzVfRjZPU5ZDXq2x/4ZnQ7UpU/JeNyh7ioQcfYSN3FiJB6aXzbD+8Jrf0tYOI7vVJLPJBis2FeCTFrlBZkyw5LmwH5xZLUL4VWSVucRCJONX1kLbMNdaIMICjpyDwVN0UdzH0UkLll0w+owAsw3oCeI2jlWSBeNpIfAJxQeuY+nGFKXHvZUgPJMXyJyMPA5wnUlh8kcAY1GymRiR5jDiQ447HEcyHFpg1KbSnfBPWqEnGRoNyDRyALyWmnOmhyprd5uSCSn8PDavZrKQoc/lFGW8zhvF8jOInJyflwU+qF65L82QNdnOGpo8Nj6Y5pJrota3Wvf56kMIjML183jYIvq+Klqdhq7TlS50yRe9kU251J01//7BO95IJtuG9uEu9PHt74Q24XiHYzauxDNNuWVzrFcxd1xY1nQS+k1NfEBJqfnEZJB4xdjthYVW+nvzccyUGaKYQLLs+IHeZoAvlKQRcPYnN6llPNtv0BPmy4PgyFtiWuvcloYCHQlKcJacGON5Re8sgGQLXgJnmLalsaGFFV12LHABtSoE0slbYuVl9neZuGCSDBVl9j+RpU9Y0ExyyHZJNRmqtULpHkXtgEPjMUqHClJR/HNPLSMUMXFK49bNtYPbeofRGOaYSax9u7XAttpjJmg2ME6qt0PXWc/QvRgsiSfx7m/v8DFwgAAIWVfWxVZx3Hv8/pvRda2tLxpryNy4CNQVFxk4xAb48wzNAIhGEgOOMtL2EotOuGzmXKHkCgLxugThgqpnGSqWDERI1BHcc1WxaRDREy2BS7OecYxCmUyTCgn9/T03v/MXrTp7/v+T6/9+f3nONcpApV/+30weMVtcvmf6R1Teui5Stuf2j5mjvun7dy/aKVH23WUA370KnccI3WWI13Dhy5tzIVGSmTcVKkjMve2bLyc+tXN29Qzg18RFKlqk3wC6JOv4okpxBN45WJsoua1qzOT/9f+kMNDnYPmmEUDG8yw/nNG1bf39y0Lr+wed1D+blNzZ9vekA5/X83OxwJkLi5cuRQk51/d37+gvzchQuWfHjukvzS+Uvu0vDtUm+eOidvlXZFty5uWdGyoUVzWtatUh9e3LK+qXlaIKa4/+Ih06m6aW3SpCzxtuuNF6PORbXTKpQxbgDuX8wqN4Q/qgr7GbheuC/JT5Vz0TZdmVjmXW6j4ll0LtquPc+V+Sj3RemataZNj40v8xWpnwr4o58p8xnzs9b8tMdP1ZT5bOonE7Xr+foyn0NfC+WyUbv/ysYyP8D4JvPfruRkmR8Ib/5zUYffTRf7+UrjG+QGRB1d1TPLfBW8llncDm1cUeYHGU9c/BS/0FHmq+HNTwT/+I/KfE2a/8CoI5l4pMzXoq/E+tORnLxc5gen/clFnX//VkWZr0Pf/FdGnT3XRpT5G+D9WlU613f8faOgiKmqrxh2+C+bnxj/1XvGTJw5bseVPx4+/vqGrsqMsleqVM3pV3HClRqggVKNq32EyzJ4iPqOd89zdmx2RHYc1nprs7XU2metsrZYC6xcK83KsJQtvaE4Z8add26T02anLU5fdtrqtI2Zc2pzanfaT/G/cdN11GWOOb2ASqQ9kcs5MiJ9UhvUP6t912Zn79Sx4ebs1InWmr7rM8qex0Y3apxudjjkyZgK+8fFd7pFe5zGqNaN3AQ1WpNUr/e5rSjmqt5P/32xIM1ojPoAnZN2NyD7QWlrRqPacxjobEG+UOC+A7SY9QpEE0R8GtDKOs7aCJE8z+62gpLDEI8acRDiazzsRn4Dwj8M+A5rIesghCYAfsZyBcXdRhxpUIJDPdEg/5oRqxoU90Ige7KNKXFDIw7RGGXEM+xMgMgSaYoRt+JsOsTygnpuh0i2snNHo+IngySPowHInwuaaFSgPoVV3ajiWIjisEYldTwgvWhKTPkAyjYwEPYlZC2EfldQl6l1F5R/L0RMQV2jcUalSMLtCEB+E9I0tJYuDUfjHmSdETSkZxAEMglVAvIOYhnEVfpAyxVfog8bIC5AxFsg3uBhF3n0GPFtHl5G4xAbpyCSY4Dfsl6H/DWE/oXGT3GcpbinIBLKTfaSFJWqDcJbHetwaLIxJVRHcoORpxqIYll20PoIWQ/hLam22YpfQRZnEaUbkP+ltD9IiI4A5D+N9KYxFfD4bKYOWcCHDjB6e1n3sS4ZUUWEm9lFalWB4ZzJwyoSCmAOGc5lTTFiAcRQFg3yGQhPh3QB++3IP5mzrwNO4MgSOgHhfx6A9CzyTYiEI9R1Js/OdAg+dBbC4iOZfjmtZhUnUrPdkADsziTX0DGgpYBeS9RAYDYToATMKmwFcB2vLaYMCExwyJXrzBDGOsrFipQfxym0Wjo3sj0ZXZuZsySc5+C0jItwBfLQbEo6DaDHyYEgKaktgHAJVJyNxk2AUaTyDut7+OCfvIPcCDHHotTjcBOEye8T34B/Jt3xb7HjG1QM48mBdVkyV7Edb8Skgor1pMtE+w8a0cFYccXig0GS0JkApHfR/ABEXN2o/ORG9TBiXSMhusZCMF5Fyo7/QfyERgDI/SK2dkXPQwxC1f+ZZIaidpLRHAERPwsYBUE4JBp7A5DvJNx7IPQwBCa6l0tQbcQncMpN8B8j5csWZQ5Oe3gw2U18AzQi3XmMhapajLgbtTt5WM26BUIPAqog25Hv0N1kD+AMI3UgSDLsDkD+BPKfEMmrqGOSnIOYbD4uQsxjXWK1FnTGhiGZRIZPk4yB+IeoGUi2cIvz7MyD8FZmBanaLf4BnpUDjCHU23i+l7OPfw9gGJJDQWKyIwC7Un0afioAE0XI4OPH2ONUW5AWxWbAwpokj3Q6nk534jfZMdWMdfYQjmw6HB3OQ3BRFddDrCyoGKaD+J5hiEkISVEnApBIOWgkWXbNhKKCjyJVBqdWtkWxPlhYk+QhevVvwlhqBnSE1AL4A66vIi9CxJcBGbych7RJSjhw2ViQQBImqZukiWWpISH2BRB6FjR4IwQT/9nUh18KYU4/jrQoYV4srMkjJGSAzPp2/C5YVHlRQWDr74JYx7L3WWzeq1k7We9yEgnx9TLNPxQkBBkC+ibJNOJXAZjE55HBB1WaUys7RLE+WFiT5KFP0a3Y3NjLJwBOXmLo+KWgtMV7ydkNNRQFwEcMpe/OLoPSFkD7HAb+J9y3EbDhGx+8FmchDbTDzGAr+UUKUmXMinbNTck/GSjAN1Ol5IUUFKemOqkyZvat5IXPO9PASIAylFwCpS0+Cm87DPx9OPtrA14TgHmNz6XAX8RgDCDeD2Nx/AP9oM8K+/B1MO1wTubI3nj8ALf1g0fTxqTKmOWtRRfQTniU7fV8MgVdtwHMrDg6BakyZhLIlPxEwGvY+wkAU0pq+sEx5tTStq9YUE6t1GkFd1Xy2niJNhiI9wH8lEIZlLYAaGtpvw8D5j58xkqgtIV7Ds2yMiqAoHSdvRIobaGt/wA=(/figma)--&gt;&quot;&gt;&lt;/span&gt;&lt;span style=&quot;white-space-collapse: preserve;&quot;&gt;IS IN CONTACT WITH&lt;/span&gt;" style="strokeWidth=2;html=1;shape=mxgraph.flowchart.start_1;whiteSpace=wrap;" vertex="1" parent="1">
          <mxGeometry x="390" y="160" width="170" height="60" as="geometry" />
        </mxCell>
        <mxCell id="LRRAN91TrpEPsdmhjxqb-77" value="elderly" style="shape=table;startSize=30;container=1;collapsible=1;childLayout=tableLayout;fixedRows=1;rowLines=0;fontStyle=1;align=center;resizeLast=1;html=1;" vertex="1" parent="1">
          <mxGeometry x="700" y="40" width="200" height="320" as="geometry" />
        </mxCell>
        <mxCell id="LRRAN91TrpEPsdmhjxqb-78" value="" style="shape=tableRow;horizontal=0;startSize=0;swimlaneHead=0;swimlaneBody=0;fillColor=none;collapsible=0;dropTarget=0;points=[[0,0.5],[1,0.5]];portConstraint=eastwest;top=0;left=0;right=0;bottom=1;" vertex="1" parent="LRRAN91TrpEPsdmhjxqb-77">
          <mxGeometry y="30" width="200" height="30" as="geometry" />
        </mxCell>
        <mxCell id="LRRAN91TrpEPsdmhjxqb-79" value="PK" style="shape=partialRectangle;connectable=0;fillColor=none;top=0;left=0;bottom=0;right=0;fontStyle=1;overflow=hidden;whiteSpace=wrap;html=1;" vertex="1" parent="LRRAN91TrpEPsdmhjxqb-78">
          <mxGeometry width="30" height="30" as="geometry">
            <mxRectangle width="30" height="30" as="alternateBounds" />
          </mxGeometry>
        </mxCell>
        <mxCell id="LRRAN91TrpEPsdmhjxqb-80" value="id_elderly" style="shape=partialRectangle;connectable=0;fillColor=none;top=0;left=0;bottom=0;right=0;align=left;spacingLeft=6;fontStyle=5;overflow=hidden;whiteSpace=wrap;html=1;" vertex="1" parent="LRRAN91TrpEPsdmhjxqb-78">
          <mxGeometry x="30" width="170" height="30" as="geometry">
            <mxRectangle width="170" height="30" as="alternateBounds" />
          </mxGeometry>
        </mxCell>
        <mxCell id="LRRAN91TrpEPsdmhjxqb-81" value="" style="shape=tableRow;horizontal=0;startSize=0;swimlaneHead=0;swimlaneBody=0;fillColor=none;collapsible=0;dropTarget=0;points=[[0,0.5],[1,0.5]];portConstraint=eastwest;top=0;left=0;right=0;bottom=0;" vertex="1" parent="LRRAN91TrpEPsdmhjxqb-77">
          <mxGeometry y="60" width="200" height="30" as="geometry" />
        </mxCell>
        <mxCell id="LRRAN91TrpEPsdmhjxqb-82" value="" style="shape=partialRectangle;connectable=0;fillColor=none;top=0;left=0;bottom=0;right=0;editable=1;overflow=hidden;whiteSpace=wrap;html=1;" vertex="1" parent="LRRAN91TrpEPsdmhjxqb-81">
          <mxGeometry width="30" height="30" as="geometry">
            <mxRectangle width="30" height="30" as="alternateBounds" />
          </mxGeometry>
        </mxCell>
        <mxCell id="LRRAN91TrpEPsdmhjxqb-83" value="&lt;span style=&quot;white-space-collapse: preserve;&quot;&gt;first_name_&lt;/span&gt;&lt;span style=&quot;text-align: center; text-wrap: nowrap;&quot;&gt;elderly&lt;/span&gt;" style="shape=partialRectangle;connectable=0;fillColor=none;top=0;left=0;bottom=0;right=0;align=left;spacingLeft=6;overflow=hidden;whiteSpace=wrap;html=1;" vertex="1" parent="LRRAN91TrpEPsdmhjxqb-81">
          <mxGeometry x="30" width="170" height="30" as="geometry">
            <mxRectangle width="170" height="30" as="alternateBounds" />
          </mxGeometry>
        </mxCell>
        <mxCell id="LRRAN91TrpEPsdmhjxqb-84" value="" style="shape=tableRow;horizontal=0;startSize=0;swimlaneHead=0;swimlaneBody=0;fillColor=none;collapsible=0;dropTarget=0;points=[[0,0.5],[1,0.5]];portConstraint=eastwest;top=0;left=0;right=0;bottom=0;" vertex="1" parent="LRRAN91TrpEPsdmhjxqb-77">
          <mxGeometry y="90" width="200" height="30" as="geometry" />
        </mxCell>
        <mxCell id="LRRAN91TrpEPsdmhjxqb-85" value="" style="shape=partialRectangle;connectable=0;fillColor=none;top=0;left=0;bottom=0;right=0;editable=1;overflow=hidden;whiteSpace=wrap;html=1;" vertex="1" parent="LRRAN91TrpEPsdmhjxqb-84">
          <mxGeometry width="30" height="30" as="geometry">
            <mxRectangle width="30" height="30" as="alternateBounds" />
          </mxGeometry>
        </mxCell>
        <mxCell id="LRRAN91TrpEPsdmhjxqb-86" value="&lt;span style=&quot;white-space-collapse: preserve;&quot;&gt;last_name_&lt;/span&gt;&lt;span style=&quot;text-align: center; text-wrap: nowrap;&quot;&gt;elderly&lt;/span&gt;" style="shape=partialRectangle;connectable=0;fillColor=none;top=0;left=0;bottom=0;right=0;align=left;spacingLeft=6;overflow=hidden;whiteSpace=wrap;html=1;" vertex="1" parent="LRRAN91TrpEPsdmhjxqb-84">
          <mxGeometry x="30" width="170" height="30" as="geometry">
            <mxRectangle width="170" height="30" as="alternateBounds" />
          </mxGeometry>
        </mxCell>
        <mxCell id="LRRAN91TrpEPsdmhjxqb-87" value="" style="shape=tableRow;horizontal=0;startSize=0;swimlaneHead=0;swimlaneBody=0;fillColor=none;collapsible=0;dropTarget=0;points=[[0,0.5],[1,0.5]];portConstraint=eastwest;top=0;left=0;right=0;bottom=0;" vertex="1" parent="LRRAN91TrpEPsdmhjxqb-77">
          <mxGeometry y="120" width="200" height="30" as="geometry" />
        </mxCell>
        <mxCell id="LRRAN91TrpEPsdmhjxqb-88" value="" style="shape=partialRectangle;connectable=0;fillColor=none;top=0;left=0;bottom=0;right=0;editable=1;overflow=hidden;whiteSpace=wrap;html=1;" vertex="1" parent="LRRAN91TrpEPsdmhjxqb-87">
          <mxGeometry width="30" height="30" as="geometry">
            <mxRectangle width="30" height="30" as="alternateBounds" />
          </mxGeometry>
        </mxCell>
        <mxCell id="LRRAN91TrpEPsdmhjxqb-89" value="&lt;span style=&quot;white-space-collapse: preserve;&quot;&gt;address_&lt;/span&gt;&lt;span style=&quot;text-align: center; text-wrap: nowrap;&quot;&gt;elderly&lt;/span&gt;" style="shape=partialRectangle;connectable=0;fillColor=none;top=0;left=0;bottom=0;right=0;align=left;spacingLeft=6;overflow=hidden;whiteSpace=wrap;html=1;" vertex="1" parent="LRRAN91TrpEPsdmhjxqb-87">
          <mxGeometry x="30" width="170" height="30" as="geometry">
            <mxRectangle width="170" height="30" as="alternateBounds" />
          </mxGeometry>
        </mxCell>
        <mxCell id="LRRAN91TrpEPsdmhjxqb-90" value="" style="shape=tableRow;horizontal=0;startSize=0;swimlaneHead=0;swimlaneBody=0;fillColor=none;collapsible=0;dropTarget=0;points=[[0,0.5],[1,0.5]];portConstraint=eastwest;top=0;left=0;right=0;bottom=0;" vertex="1" parent="LRRAN91TrpEPsdmhjxqb-77">
          <mxGeometry y="150" width="200" height="30" as="geometry" />
        </mxCell>
        <mxCell id="LRRAN91TrpEPsdmhjxqb-91" value="" style="shape=partialRectangle;connectable=0;fillColor=none;top=0;left=0;bottom=0;right=0;editable=1;overflow=hidden;whiteSpace=wrap;html=1;" vertex="1" parent="LRRAN91TrpEPsdmhjxqb-90">
          <mxGeometry width="30" height="30" as="geometry">
            <mxRectangle width="30" height="30" as="alternateBounds" />
          </mxGeometry>
        </mxCell>
        <mxCell id="LRRAN91TrpEPsdmhjxqb-92" value="&lt;span style=&quot;white-space-collapse: preserve;&quot;&gt;mobile_number_&lt;/span&gt;&lt;span style=&quot;text-align: center; text-wrap: nowrap;&quot;&gt;elderly&lt;/span&gt;" style="shape=partialRectangle;connectable=0;fillColor=none;top=0;left=0;bottom=0;right=0;align=left;spacingLeft=6;overflow=hidden;whiteSpace=wrap;html=1;" vertex="1" parent="LRRAN91TrpEPsdmhjxqb-90">
          <mxGeometry x="30" width="170" height="30" as="geometry">
            <mxRectangle width="170" height="30" as="alternateBounds" />
          </mxGeometry>
        </mxCell>
        <mxCell id="LRRAN91TrpEPsdmhjxqb-93" value="" style="shape=tableRow;horizontal=0;startSize=0;swimlaneHead=0;swimlaneBody=0;fillColor=none;collapsible=0;dropTarget=0;points=[[0,0.5],[1,0.5]];portConstraint=eastwest;top=0;left=0;right=0;bottom=0;" vertex="1" parent="LRRAN91TrpEPsdmhjxqb-77">
          <mxGeometry y="180" width="200" height="30" as="geometry" />
        </mxCell>
        <mxCell id="LRRAN91TrpEPsdmhjxqb-94" value="" style="shape=partialRectangle;connectable=0;fillColor=none;top=0;left=0;bottom=0;right=0;editable=1;overflow=hidden;whiteSpace=wrap;html=1;" vertex="1" parent="LRRAN91TrpEPsdmhjxqb-93">
          <mxGeometry width="30" height="30" as="geometry">
            <mxRectangle width="30" height="30" as="alternateBounds" />
          </mxGeometry>
        </mxCell>
        <mxCell id="LRRAN91TrpEPsdmhjxqb-95" value="&lt;span style=&quot;white-space-collapse: preserve;&quot;&gt;landline_number_&lt;/span&gt;&lt;span style=&quot;text-align: center; text-wrap: nowrap;&quot;&gt;elderly&lt;/span&gt;" style="shape=partialRectangle;connectable=0;fillColor=none;top=0;left=0;bottom=0;right=0;align=left;spacingLeft=6;overflow=hidden;whiteSpace=wrap;html=1;" vertex="1" parent="LRRAN91TrpEPsdmhjxqb-93">
          <mxGeometry x="30" width="170" height="30" as="geometry">
            <mxRectangle width="170" height="30" as="alternateBounds" />
          </mxGeometry>
        </mxCell>
        <mxCell id="LRRAN91TrpEPsdmhjxqb-96" value="" style="shape=tableRow;horizontal=0;startSize=0;swimlaneHead=0;swimlaneBody=0;fillColor=none;collapsible=0;dropTarget=0;points=[[0,0.5],[1,0.5]];portConstraint=eastwest;top=0;left=0;right=0;bottom=0;" vertex="1" parent="LRRAN91TrpEPsdmhjxqb-77">
          <mxGeometry y="210" width="200" height="30" as="geometry" />
        </mxCell>
        <mxCell id="LRRAN91TrpEPsdmhjxqb-97" value="" style="shape=partialRectangle;connectable=0;fillColor=none;top=0;left=0;bottom=0;right=0;editable=1;overflow=hidden;whiteSpace=wrap;html=1;" vertex="1" parent="LRRAN91TrpEPsdmhjxqb-96">
          <mxGeometry width="30" height="30" as="geometry">
            <mxRectangle width="30" height="30" as="alternateBounds" />
          </mxGeometry>
        </mxCell>
        <mxCell id="LRRAN91TrpEPsdmhjxqb-98" value="&lt;span style=&quot;white-space-collapse: preserve;&quot;&gt;date_of_birth_&lt;/span&gt;&lt;span style=&quot;text-align: center; text-wrap: nowrap;&quot;&gt;elderly&lt;/span&gt;" style="shape=partialRectangle;connectable=0;fillColor=none;top=0;left=0;bottom=0;right=0;align=left;spacingLeft=6;overflow=hidden;whiteSpace=wrap;html=1;" vertex="1" parent="LRRAN91TrpEPsdmhjxqb-96">
          <mxGeometry x="30" width="170" height="30" as="geometry">
            <mxRectangle width="170" height="30" as="alternateBounds" />
          </mxGeometry>
        </mxCell>
        <mxCell id="LRRAN91TrpEPsdmhjxqb-99" value="" style="shape=tableRow;horizontal=0;startSize=0;swimlaneHead=0;swimlaneBody=0;fillColor=none;collapsible=0;dropTarget=0;points=[[0,0.5],[1,0.5]];portConstraint=eastwest;top=0;left=0;right=0;bottom=0;" vertex="1" parent="LRRAN91TrpEPsdmhjxqb-77">
          <mxGeometry y="240" width="200" height="30" as="geometry" />
        </mxCell>
        <mxCell id="LRRAN91TrpEPsdmhjxqb-100" value="" style="shape=partialRectangle;connectable=0;fillColor=none;top=0;left=0;bottom=0;right=0;editable=1;overflow=hidden;whiteSpace=wrap;html=1;" vertex="1" parent="LRRAN91TrpEPsdmhjxqb-99">
          <mxGeometry width="30" height="30" as="geometry">
            <mxRectangle width="30" height="30" as="alternateBounds" />
          </mxGeometry>
        </mxCell>
        <mxCell id="LRRAN91TrpEPsdmhjxqb-101" value="&lt;span style=&quot;white-space-collapse: preserve;&quot;&gt;comments_&lt;/span&gt;&lt;span style=&quot;text-align: center; text-wrap: nowrap;&quot;&gt;elderly&lt;/span&gt;" style="shape=partialRectangle;connectable=0;fillColor=none;top=0;left=0;bottom=0;right=0;align=left;spacingLeft=6;overflow=hidden;whiteSpace=wrap;html=1;" vertex="1" parent="LRRAN91TrpEPsdmhjxqb-99">
          <mxGeometry x="30" width="170" height="30" as="geometry">
            <mxRectangle width="170" height="30" as="alternateBounds" />
          </mxGeometry>
        </mxCell>
        <mxCell id="LRRAN91TrpEPsdmhjxqb-102" value="" style="shape=tableRow;horizontal=0;startSize=0;swimlaneHead=0;swimlaneBody=0;fillColor=none;collapsible=0;dropTarget=0;points=[[0,0.5],[1,0.5]];portConstraint=eastwest;top=0;left=0;right=0;bottom=0;" vertex="1" parent="LRRAN91TrpEPsdmhjxqb-77">
          <mxGeometry y="270" width="200" height="20" as="geometry" />
        </mxCell>
        <mxCell id="LRRAN91TrpEPsdmhjxqb-103" value="" style="shape=partialRectangle;connectable=0;fillColor=none;top=0;left=0;bottom=0;right=0;editable=1;overflow=hidden;whiteSpace=wrap;html=1;" vertex="1" parent="LRRAN91TrpEPsdmhjxqb-102">
          <mxGeometry width="30" height="20" as="geometry">
            <mxRectangle width="30" height="20" as="alternateBounds" />
          </mxGeometry>
        </mxCell>
        <mxCell id="LRRAN91TrpEPsdmhjxqb-104" value="&lt;span style=&quot;white-space-collapse: preserve;&quot;&gt;support_date_&lt;/span&gt;&lt;span style=&quot;text-align: center; text-wrap: nowrap;&quot;&gt;elderly&lt;/span&gt;" style="shape=partialRectangle;connectable=0;fillColor=none;top=0;left=0;bottom=0;right=0;align=left;spacingLeft=6;overflow=hidden;whiteSpace=wrap;html=1;" vertex="1" parent="LRRAN91TrpEPsdmhjxqb-102">
          <mxGeometry x="30" width="170" height="20" as="geometry">
            <mxRectangle width="170" height="20" as="alternateBounds" />
          </mxGeometry>
        </mxCell>
        <mxCell id="LRRAN91TrpEPsdmhjxqb-105" value="" style="shape=tableRow;horizontal=0;startSize=0;swimlaneHead=0;swimlaneBody=0;fillColor=none;collapsible=0;dropTarget=0;points=[[0,0.5],[1,0.5]];portConstraint=eastwest;top=0;left=0;right=0;bottom=0;" vertex="1" parent="LRRAN91TrpEPsdmhjxqb-77">
          <mxGeometry y="290" width="200" height="30" as="geometry" />
        </mxCell>
        <mxCell id="LRRAN91TrpEPsdmhjxqb-106" value="" style="shape=partialRectangle;connectable=0;fillColor=none;top=0;left=0;bottom=0;right=0;editable=1;overflow=hidden;whiteSpace=wrap;html=1;" vertex="1" parent="LRRAN91TrpEPsdmhjxqb-105">
          <mxGeometry width="30" height="30" as="geometry">
            <mxRectangle width="30" height="30" as="alternateBounds" />
          </mxGeometry>
        </mxCell>
        <mxCell id="LRRAN91TrpEPsdmhjxqb-107" value="&lt;span style=&quot;white-space-collapse: preserve;&quot;&gt;password_&lt;/span&gt;&lt;span style=&quot;text-align: center; text-wrap: nowrap;&quot;&gt;elderly&lt;/span&gt;" style="shape=partialRectangle;connectable=0;fillColor=none;top=0;left=0;bottom=0;right=0;align=left;spacingLeft=6;overflow=hidden;whiteSpace=wrap;html=1;" vertex="1" parent="LRRAN91TrpEPsdmhjxqb-105">
          <mxGeometry x="30" width="170" height="30" as="geometry">
            <mxRectangle width="170" height="30" as="alternateBounds" />
          </mxGeometry>
        </mxCell>
        <mxCell id="LRRAN91TrpEPsdmhjxqb-108" value="" style="endArrow=none;html=1;rounded=0;entryX=0;entryY=0.5;entryDx=0;entryDy=0;entryPerimeter=0;exitX=0.997;exitY=-0.004;exitDx=0;exitDy=0;exitPerimeter=0;" edge="1" parent="1" source="LRRAN91TrpEPsdmhjxqb-40" target="LRRAN91TrpEPsdmhjxqb-15">
          <mxGeometry relative="1" as="geometry">
            <mxPoint x="220" y="189.09" as="sourcePoint" />
            <mxPoint x="260" y="189" as="targetPoint" />
          </mxGeometry>
        </mxCell>
        <mxCell id="LRRAN91TrpEPsdmhjxqb-110" value="" style="endArrow=none;html=1;rounded=0;entryX=0.004;entryY=0.954;entryDx=0;entryDy=0;entryPerimeter=0;exitX=0.997;exitY=-0.004;exitDx=0;exitDy=0;exitPerimeter=0;" edge="1" parent="1" target="LRRAN91TrpEPsdmhjxqb-87">
          <mxGeometry relative="1" as="geometry">
            <mxPoint x="560" y="189.17" as="sourcePoint" />
            <mxPoint x="601" y="189.17" as="targetPoint" />
          </mxGeometry>
        </mxCell>
        <mxCell id="LRRAN91TrpEPsdmhjxqb-113" value="&lt;span data-metadata=&quot;&lt;!--(figmeta)eyJmaWxlS2V5IjoiWElGcWdxUFpiNHlaZzhyRWNtUGNKbiIsInBhc3RlSUQiOjQ4NjkwNTM5OSwiZGF0YVR5cGUiOiJzY2VuZSJ9Cg==(/figmeta)--&gt;&quot;&gt;&lt;/span&gt;&lt;span data-buffer=&quot;&lt;!--(figma)ZmlnLWtpd2kwAAAAr0YAALW9e5xkSVXgH3FvZj26+jHvFzPD+yEizovhISJZmbeqsjtfkzezembUSbIqb3UlnZVZ5s3q6WZdFxERERFQERERWUREFhERERFxRERERERERERElmVZlnVdlmVZ9/c9EXEfWd3D+s+PD9MRceLEiRMnTpw4cSLy1h949SiO+2eizoX9SKlrTjarjV7YKbU7iv81mpWgV94oNdaDkKLuhkE7V/YMdtCokPfD6nqjVCNXCDv31AIyRZPphYHQWjC4hnIvPFVt9dpBrVmSlouNZqe6dk8v3Gh2a5Vet7XeLlWk/ZLL9irNhpSXk3I7WGsH4QagI2E5aAQ9wK2N3l3doH0PwJU8sB20agI8WqmurZEeK9eqQaPTW23Te7kUCm/Hc7ydbHbbjCMQzk6EnXZQqtsaype5sh3x5dVGJ2iXyp3qJoOsVWHMioa6K9pBudloBGUGm2Mm4fDKS1cnvF5l+KGXXrVRbgd1+C3VqHVtwLi6dH4YMwF3k1fSRJe2t5lIQHBY6TUbhpAyhdPtakeY0o3JIGrt9uMINOiWOmaUINWbmyarTw/Hg+H4TPtgJDiNZuPeoN2kQjUrpl4oWE15LJUBIFVplrvCIVldLjU2SyE5b73d7LbI+GvtUl3wCqvNZi0oNXrNFkLrVJsNgMVNhtNsk1sQGZMu1qqG7FJQq1VboWSXGXgHuRqdOtIO1ru1UrvXatbuWTdEVuiqUQkqIqAU72gnuFtYOsbElAVwPLynvtoU/TxRbdBZw0CZ0Wr5lIjq8nCj1Ap6p6udjZ5re4WTt2HwyrKshdVas3yK0lWnq5V1o9dXQ6suI72mHlSqJTLXblTXN2r8J9XXhRCwg73eZXsIu10rSac3nC6FG9Veh54pPWSz1K6WVg3/N3Zc5iaT6ZWRB6WbExS3qh7K8MxaeVgpDKshE9qDcrMrdQ+/WD+DmlEmKh+REhJu2lQCfGS9WemaXh9l8depoPRoW2o3T1N4TLjb349OD2e7nej8zCrDzeFd3VI7oFbBp5s3jTjqTbNUvA6dycywuin6abHSPC2iKVxqCoutUrtUq2EmWB31XttJdGEeXAvWBLoYNNZ7lRLCKpnOl6TMcutKYVkKa1VD9YjJN2uVQGZ1pcPCC+5tmmEebbWDSrCGAlZ6rXazHISiyseYoaAm9ccTVe+FVcfjiRRU79Y61ZYBXlYvNbos2GqjZSbi8o3g7pLV1SvKG8Fm22SvbNHMga9qMmybFX0Szq5p1brS/bWlNnJPhnmdLSWyuD7s1uvw0jvZbTDPhsANRl0fEraCoLzRW+2uMskAbjTagGXDmjXbJWOlblodReNBnTUt7KBBvc4GM7EulhXb364be64rpfapQEh7bpCiur4sVNbhKuaSYqHcrDXTUtGov2mzEGJpTM4sbVpUmiwdyku2SVJcFkVEeckeCZtrnZ6hQWllo9RGrV3J2PGgHdj1eyy4u4yc7MiPb5jZPhGWOt3UxFxmeiFzea2LqJphtSNdXNHqD8dOe5fCJvoNUKFRlSrTQm/CKhCdgiQ18sC2kRUQmiq2CJifwkBySl+o1q2Yi9jXk1UyC5ssIzGni9U9ttxwuz+KrPTZM9tBp2wEv1aVcWr01fTWsXrrBzs70bbjuFDFMLXZMUssICpVpd1sZUW91sRMMpPsIKu1rjDorZbKp+ZBvqzfstkNFppoVBXlAKy6LSw0qa41T5sMLHQsDyEaUeuVSy3RzEJWYkG1y2YHKQrRSrQ9mfZnw8mYNsk+Qc/ML3Ilrxlu9VSQaZtXi/qy8XSmwz1KSRto9zYCN/O6cbC3FU274+Eshm67JENVrerdQS0ko+GavVQwvfJkHM+m2QwvMvPAldSbIel6SbZODz6c2P2wzK5PprAGxUrPtii6gsFeCGfTydmoNBqeGdMgJabYUJhYMhrL67KeRS7399HIZDwM16iGTu2lZxe0yEUG4dticFe3WmN7xtABLDidEhNmHZMi4kP5MKApaCG/6yxm+0rvVspLufJtlJdz5dspH8mV76C8kis/ifLRXPlOysfK1XY53/txO9qTk6FIpo6/0QaqVoPNQEagk4F7q5PJKOqPm/tRoiCFbsOuVMRIM9kkyeuwu4ptNnnvbrOAjb4a4W9MpsPnTMaz/ojmzjLm5hZdNlLwTnbZ3teqhsOs9WY0nQ1ZegJrtqjKNV1tdjrNOjmvPjmIo/LBNJ5MkQ/bQgnbR4Uqt5shK63aJq+DewJZeqgeJQ/vz3TVKjEUbGEZFadcwNKTFEnK1Rq5hbpYVGmyyBTjU5NbSufPFJc3WeyTaX04nQoD6Soys06qTQYLhGVkR+uICnuVfrxr7YlXZhcGpDIF18bm2PVQaDXWAamTrUBSHW5K4rUq4iH7wfn9yXR2eA35eEOYdDY/t1BUAsAXMv3rBJAuWa/WvzA5mK1PhwNLpGCXVU7iGYOeXWV+1qbVn82i6ZgqsKots0Kw0cZWazOfB7NJO4qHz4F0KiLDjpFMyodOc54060wPxttO/bxKNRQ/SGgqXG52UzI6nF0YRWHkxs7UtcOms48djgAkuox2WV3hNIKr0SjLxuJ3gnqLDdb4+YWEDMKcRakkL9pvyOpkt8Bw9LfP2mlMx7SBgb4X6RoONBslbqvJW2yj13R3kXStSL1VlExMDHnfNChPDmBo6totPFg7xO4mxy91O7JzFXKkiobUyYN4Nty5QPFBqbRKZXzPzcAeSnxbXg06p61jgJSgE9pZNAYXIKeSsHpv0Os0sTJGQHMAlI5JrtZbuPeUpAYcK43WJB7K5LKfAHKMq9IqYu/ag5BBOz0V28xewwGp1AKsXGqr8yJy0wd2Qu3wGDQoY5Ys3dpJXk6mDlNg/S45TFPW3baZuFU2ZFK/XGsaj7WAR99LvHLKxW4LfzbomWNFr91tdKrmILXAKqtUxbsxCrCYb9bDgRecpSr8Tvs5di7j3IFNMF2q0hos9YQe+xVlXW9yssdfJe/ZvK3wabUhfhn5gq3AwxC0oi0Zd34BLFxn4y0vumEvVfAxSZepOxXckzQ7QnGzaU9kK+Tt4DbMBB9NyyxDysdsF4k2HbdFzpCb0vpEZ9of23m2I7yBXZizQ6fHtsF+LAICTbG8mXfTRK8RPCD17HFmrd1Mjw9+DpRsH4UczG4UxRwk3SkWWt1ww8IcscUMktBaykCW1HIGSCkdkWO4hTlKKxkkoXQ0A1lKiCkBpJSOW0aZRJASYifmgAm9y+agluTlc7CU6hWmJwd1RK/MwxKaV+WBluTVeVBK8RpsXrWM1pr5uRaHkghMqYEpNOv0Os4OTVzMDHJ90I9Z1nbGjxMkKXdXq2UqlJBOCrrayBc9sVfWTaeFrLu0qiB4c5CibTsHW7CmPi0vhq223SeW1lFP1l0KWHaoKeCIzZkFwkq1q2NlHtg5LTbl6CHgBucmwMfC7elkNKoMp9a8wLRbY99kV0DCxmrbttimmViDaIBlm0XUB3e32CCtoS1DQTwtU9LrXbYm7cUEk+iM/KLSownuksl65ckIf0QXpmpZ6TP8423xj9/nn4J1WWh8npK+wD9eGxDYGeB+/vF3+adgKIWzyT4NtiWvnqX0vjPdINiuBGGzP1Wevy1FwTEZgb21oLxcA7/en02H55Ve2LvlFsp675ZbSby9W24j8fduFWBh71YBFvduFeBCqz/FrlfHg4h23pmD4UDdl+NiRXn20EHluf7oIKKNPjAHkBuVt4ZYG/29SGl/p783HF0AX8ey45MRzmbx9nS4P6PkCy48D/s0OdiLpsPtteGZgylzwR7vDtoKPUUByGjiEyZ4St50M9803O9vswrm2hKwwO0Qq2fKmkiIO5tegsCaaIMMME8By0sIwuTxytB/oxD51uX+foz2Z01YsOaQqkl6ScFrBRwYhXUfQC8tiaNPwFWyRUAMdp3sQo5+K5F7ni0OAvzLeQAfjIzhJzRCZnJSrCqLwKxNHUZ7kBpun46GZ3Znc0jE/2RIKUqVE8Rwew4lo8MRxewsa1F/ZibqH3WL8yhVqnxby6C40XjlVihwX0ZFagZKWnTB0wXCReJYLzbblQbpUmmtLfXLlYaxgkca3boMbQX3XwKIR9moRTTHKjY9LucC0hMcnyW9rFQyR5HLyza9grOYpFeGtnxVe9NEYa4Wi0B6TXjaBMuvLYenJb2OSRb49eWyiVzeEFof7yEbRBBJb3Te1E3NdkP4u1mEQvpQNlaR38MqHXPifvharSTjeER9vS1+xSNDdJb0UZxtpP9Hr+GKkz5mw6aP3bD9Pq5jy99yl00f37Lpt8p5jfQJtbVVKX9bs2XSJ7Y7Jv32lm1/S+tUQ+R0aw27RXobqfB5e7tTk/IdpFJ+Umm1vUl6Z2l1U8pPJhW+n7Jp6Tx1E4ZIn7ZaOy3z8x2kgvd0UsH7ztKpDRnHM8onzTn0u8prZkE9s9wy5VK52xa8VXwMKZexqpJW1iz9gFCi8LNGehvpOuntpBt0K/1VSYX+yQ07HnpbF35qG82Tojf408YxalTxYEibJ1tPfgpp62TrKULnrpOtp95C2j7ZuuUO0rB2si7tOgSpBb/LdirzsileFelpUuHj7vqpusDvadSMP3hvo3uqQ/rd7DzC1/eQhqTfu4nASe9rhR2B90gF/qz2qbaU++3WhqRb7e6qzPt2iDtOOuhYPqJOw5yUdpgmmb8zmwTmSHc3bf1w04772ZunjL6c3Wx32qQj0ttI98IQC67UmFTKE9LbSfdJ7yD9PtInkU5J7ySNSZ9MOiMVOR2QPpX0XBhi+5W6n1TonScVehdIhd5zSIXevyEVet9PKvT+LanQ+wFSoffvSIXec3UY3iYEf1CXNw2Hz5OMkPwhyQjN50tGiP6wZITqCyQjZH9EMkL3hZIRwj8qGaH8IjKG1R+TjFB+sWSE8o9LRii/RDJC+SckI5RfKhmh/DLJCOWXS0Yo/6RkhPJPkTE8/7RkhPIrJCOUf0YyQvmVkhHKPysZofwqyQjln5OMUH61ZITyz0tGKL+GzO1C+RckI5RfKxmh/IuSEcqvk4xQ/veSEcqvl4xQ/iXJCOU3SEYo/7JkhPIbydwhlH9FMkL5TZIRyr8qGaH8ZskI5f8gGaH8FskI5V+TjFB+q2SE8q9LRii/jcyThPJvSEYov10yQvk3JSOU3yEZofxbkhHK75SMUP5tyQjld0lGKP+OZITyu8ncKZR/VzJC+T2SEcq/Jxmh/F7JCOXfl4xQfkAyQvkPJCOU3ycZofyHkhHK7yfzZKH8R5IRyh+QjFD+Y8kI5Q9KRij/iWSE8ockI5T/VDJC+cOSEcp/Jhmh/BEyTxHKfy4ZofxRyQjlv5CMUP6YZITyX0pGKH9cMkL5ryQjlD8hGaH815IRyp8kY0zU30hGKH9KMkL5byUjlD8tGaH8d5IRyp+RjFD+e8kI5c9KRij/g2SE8uf04SgVLtqM7VrdoXTiqnnizNb7+/viLGlvZzrZE/duNuFfb3U02VJab12YRbHytQ2PKc/nfnRXymPx7PDjBv1Z3+AuKn9zOIgmyvMSnPj27nQkSK1+PIvCycF0GxJePMW7w0ERd3C63ZBQDh0C4lBeFu+1NHg2UROll2bCOD5lvNsfTO6PyXq7uC3EHHbxMfFaB9GsPxyRK0SMNxZHBO/1HDGJiNgY+YVZtGeCqbZq8dxwi4MxbCxz6BS52G7dLb/yjvz/2+U23tkUYZBf3poKzTE9UzpimFHetWaSLlPWjVfPUt5EvNmZnA78c8N4uIXgtCqQuKup46oYcwqI1Y5egPY43plM99Sz1eLQzNiLtFoyuc4urvpYWAe03B8D5MRTlSqBXGYhuJd4v0ztorqccv4W5gp1xEJ2JwejQVn4q/fHAODnmumEoxONYXMlliZkju4Y2RpMN6Uv1erYvox0zVRhidXxaG/y7GGZHlqEx5Hxoj5xzijSi7W6glD2meGY45X0fHo4mO3C2ZVz0A3ryS6qq7alJ5xlOfpcbYQihV19rTjFdeatgrIqr3g2uqD2ld4BWhuOEwLMtEAqwzMRnPqcWihZV/r7VUEKzmcucu9BCdpDO2bP758fxp3+GZjQkm2IBNH7ZKWZ6Lrt/Mrt3b4cL6JpDIZOS6ajakWG78WSb56LpgR5o06fuVbv9rQ/MpFfEwjcQgO4mhrBfcz2oYtnRhf2d2P2Db0wSK+XYnYNvbjF+fTs9x1MZCG/UevLLJlNGAAFjpd2GEwqnVdovbzTH422iPGtURGrfX1kF6Wc0tnZ1cl5qLxG6xVK5N7g66OzNFzM8XnqTotFdczBo0Eq3+OjyRm5WjAonUk5GXtzZyeOZlgitaxP7A2TeGLa7vI9StC3vb9W6ysGHNPORYOaYeKNvr6yYgGZnI/aYTpp6TlpeZm0WM5z0mJhzUmruAMveeEsXCyLRTdSaMxJYMnBcxJY/ldI4Mjh0a4M7OBqhn9Ge3Qjx4PyClvEYgexGnD4tvbWndT93QSPA0SREGVKmEWQNYozpglhYFeSvD9kAY0ghcHZs21PsXQWVXHViVN5S9hAeypFyvebBcpCkrp7yPiSSUdfkFIp3oYUpUVM5mQa1XJXm1jIneE0nqVykb5gKF9eWJfJo+Ptyd5enyGs2t0nC0tsKbuCGDRjkAk0WkD/FxPvD84527xwsR1aNCBjZMJopr5QIG6bqgsb2ZTwDRLUSDDpTvZNpz+YhXPuLm0VM4QUDbjenzJtTvZ5Rm18yOiZtJRCI5rdPwHdjRBx7TEfzyFQxT/pOC+2FLKxczuElLSoQqzu0zq8sLc1GTnysSnQL/u9zSdEYiHgEcSRbSSE92gNYbEVMZkJWfTU+Ayeh25AYR8YriaBAqS3Ho1l80NCrq9JnrI+iKM1tGBdnBLGcWFsQjUaR2K4s9Mcjy60Efq5/shg+xWr+dW9vYOZjM7sTZauN0+XgrNnXimOo1l1AJeMH12bDsF5p9baVQSALkCgL0VRaOywyVcHOKiufTvaAeWsrU2Is7RMJYjeokhWRt8XiKC/i7aspRmDmxzsVwf4tso3M0T+vawhK2kKD2g8Btk+GBLF92m1kBRDQ/0DmihqnpSXrOn57kJH/cGqkw4fpH7TdYoi/D8wmohAhF0d/L8wQwZQeTAkHIkDuhs8WH1nN9r7JtyEGCMcGXCcDswkD/6H9NwkZXitKV6A8hZmUthMMfCBM26NuL0ZW4cTZ8xsaYxfB1BZfIp6f3zAnnghjEasy4ilrArDeHUyHTj35hIIxfhgSwKcW+xK0rkbw0LG27yCfgwFnasLqBA1nUkZJmWMJm/H9BF4DjFlsohklqEfEa3FlnnLO7jXp6zqxqYSEeFin7Pj3+jjnhN0FRG3+ulyjjkJsv85h784GuK2Ti/Imu9MQjcW0ATAaV0vYH/3J+No7JbQ4sF4ZyQ30nKxmCe5NIy7SZWRzLJlu5y0r/c5HSSGbzuBWqp6/2BrNIx3ISYdC7udSSfq79Uy9qQT73AnfpWTj5j2RHPDmQw7M0dCqrkT3g+nGBiHLFYM13uOhXlDc2m6m7f9qyizN/RHYW5GkiaWtH3DpLxj5hBwlXCCbplDgPEPsPj+lN3yQE4Mhew0UCRJTwML8f406g/AWIx3J/cja84xqxESHIh5Bn3J0thkU8JRXjaduMIR29iVVs67zNELLnOsIycMs81Wxzty1jOsbio9OLBGn349FHQ2kYpKdG64nTyqSK5lJHxmHn7oMgFNE+L1DIybGgnQU8buS8N2cqhgZ3GNy+XTPXNk1oc6wQ2SAmdhdN7tjowFqVUHTOVwZ8iGj9LTytL8HGu4ifjxE1vOc+gIAbWU3tArLueSmzwt+bTGk1Jyn+dzncQ4EsyCK6bIRQdI8BfsA0hyi46BVZztM1h6cb1YCmy4cEMv6ajlEpzLMXtHLfeE7hmVvoiAHUPaktBotdJLHvldjF5CR3GHREE9bysFGypfQpQZqCxqIrrY6HPYNTI0WKrYKG0SmTeXGIqryrZ9pajD0+Y6wJO0x42JQfDdnaV5JlAIOEFLkALKTKdYLTCSN6MgqLC9bq43CCG3INtr3d7bvAOAZ1uGHLmxDBj4I/HBzg63W1iMofhrhjUW5TZ+/Ux8jRkxR+XH586InTHnM+afYrVi1s1XWUWUmgcz8VHF8FOPiWM68AXFL6G8CMbahCBGaJ5zYbfOxoCX8GlKW/FkdDCLnGeHkdvOj+qftDriWN5cd10qr7rWawSBu2cs1U6X7gnJ6Jo5ucgLn8QU3Mk+yLFSedjwdNX744O9EHvBRMQK797ZCIIRsYWGsgxwbM8cYBWnrrRo+GIel/bFWE7H6ilqOUfJLfQjlporrcS2Vmg40NGMqoMcW2c/QY3MYRhWtSVBn8lm7rewjCDcjy1i2swz+iWFlZtz5PGhZBc2PnEo2Y6IQO7VrErLqzoSLuHazVMC8dyDdD9YW7PP4wpcNTTbkiu691AL2EH2HEMvt1PavqydTxwItz0mm6sgMNOMVTQH7mOBuCYxM5pYD8qeTLatcnfLGF6WCwIHYDRfZpgh3B1Ueqc3Alb0RrVW6TXXeraaW79e8psARshqv8fVSEOvNN1OueDQhhBL4zNIkYAVO0Cu6A3HuOFtY+gp+nbTqXEUpO3BdAiHejCM90f9C2YxrIgDbopG9+G/NTogxuJ62zcFJEkznHOCGjQ4awfaMnXtaNTntLtrGxT2DdA22ItscI0mbqrJ4l5VcJasr1SoH4xmQ+k9mq4No9Fg004FE7TNgkL2KIPOX7p75QkDlINJvS+RN6WWEv1wb5DEYJN4zir71giTKyR2uJha6AVp05t7L7CYdhCMB/tyIkQMkcvKRgobuKf7yeRvcZNuOXmpp/y0MRlsxaglrRhNDt2uaJqBYnFF8iE5qcdVrlYqNfOeC9tpdJkbrwRknwAlr6ps0/rQMkc3MUCh8govvwpTbNQAE4YWI5agtto8bS0QC6rkRMPW3La/ecla2WXopZuXuRFHVcnp0njs9lUsHjGH2QWLfb1brELbLlbNZaZ5fOGljw59bvJ6CbgghbSqWC/dnVaxb96dVS1akmntUpn72KDd4zKt2pXFspyagyNiIBCjfTGwYkrcY6/TUX7Kj66R662V6lXzEO+YKbrL3uOmcDrp/AQLNch4uawWdNCknjx7YwUDuZxJY6fOAFdYQKtUcW8or7QA9yTtKlsyXLnN7+qmNDZXxteUm/UW6m3g1xpWktFcd7HoladnIv3XMPtZLWox6m9FEh/S+xZTjh2v5bSfIdWjvkS0JdgjOh6KQVcFu5JUuoK0W1NespL8S1IgRmPMvpabBSFH3ptNXM5PoKaT13uqMJuE/T1bZDc2BqxplFdsy4w4AEq8wM6YgNeG57EebGmWZmgiBGaLeTObsjsg1CfnIueqTkaDU8ZkEbDAnq+lttrL4W4MCRxPL1QJ4tMkNncWQr1qRmLL5UMHBDzQaCQSNYyaQN1ZbODYNqO/nayrEXXO4kpw7GzXROwKp4eDMxFbCesXY+cR6jFt6TIYDAnOyQAKsyGmdNbf26/Gk6fcydUqpPE9piAKZQYlyNGgJNFwfxtPPikUpCJZwn4lkF8jMm/q9Ea1E6w2S21Z6tq8a5Ol47HhnXXIpVprQ66h5QmZaD05bX4r4n4j5s70DruBlgJUIUqOqUoedZpfxiQlL8SeoCohGsPulDVa7bIXkmpRd5aUNUBz2FYSbNtSUO9Ew2XY3f0BQ+2Oh+c7iYgYtAlHEe0bs/d4LzPHXRGopDZW/6T93X4cqQXlmYwF3rnPtp88ehopP1e0CE+eyVCPoK+kFvSUsZ3RoqQW9NRh3LJHV9FKFPotmmMeZ+h9GQy47/FGmdaZYb3RU8/NA50qqjd5+mfdZvt7xsMoSUxEwhTv0Or/IgssObvRorrVZS0H0TAOJzszt8uGUgUbb9VcT0zGVmKOtV8HtjYcjRKcn6dsXdwE8otAmufsWVVS2W+Suq9ZDjpIQ/2L5g7bFCtzg/29xLki/6samVzCs3qex7rNVWVu2nM97q9F0QlF4uNspqR+wj/kgL3XmzybA2p4wGJEb6aRMWPGpRD6f83OeK4+mYxHQ25+RheSfj+Fu7RLqBGT4qSAPO8jtu/AOWGYitclFakcDPiXE7Bz9dOKN6YV5oSfVfxKUiHefgZ+UwLO8cPBw7JB/W/r2AAHAAWFeJX6kJ0GA7OISc2f5mqEYYF9OAezTAn0z3JQ4UhgH8kdC1t97FOsfkrr39eX5HA1RYXLB1CakIVqg5hKq7+H7aTYslsQgQW8yaYE0mL1Wl9/OdEA469mKvBxrZ4DNQOdX1f/hlzaIB93+v58RaYzP2DBqQ3PaeAntHqlC5jNq+9L9UESXIJ6vpPXc4vIjtB9kOrPJfErxCQG4uNuB6nZVX7KLOof8x2Smfu/kvOQZc1WfwIxlm9jpH+dEItS/3hFfVLby9DyfKNvZFRE0pVoJ1bP9fWL8KdzYOQbq697+sc8N2qRwlu0+r6saG2JzA8bsBOmwCVg9W+5j8K0JCGudhRzGgzGMjHi1b8oiYgRgLENzQB/Yp41jBkXQeIvxOpfPP1iojaEN0vTaPVgyxH69TROFkqwjTHrr+k5EPG3T2n9dWPbEw9gkhTsEPaTBjXZrVVR/b63l+1c7/DoPHdVdHWSt42r7AL9M9P+/q5sBLg2y+qaQyCLeDKFJq9Ql9W1h2EW9dSMtVgaMfjcD7Yepx52CbBt0ElrNlk5cq+kHq8efhHQIncFXmZXU9eoRyR5W7UpxdxF1nXqkfMQi3Ya9yS5uxurx2UlW/09IqEG+x1X6d+S5G3V9xpyoiSv0urxScHW3ec0qeOg6tVa/UcjecIIw/6YaNDe3mRckxATfqSEUv7dXC0O0vnZQZ+zbIbxXFZhilIZsnQjGQcrLI/1g3ksu7mKvPIoz8ujYJXkkQHgH8qDQzwOluC90XRC1fPzVY0D+37Yvl2eqh++RKXTATUjiH5xLRdcxttR59SP5KvL8rb4vHphHpbue89RP6rZ5DFjCfGx+iWLmdqJD4LRZzz2ovUG9YAnjhHlFqd25GkIafXnCbiGfCj/Bafa8zWmXkJMf8f2abhjzTn36zPzIOPHvMtT/+DJLHXZsmsmmJXwsaj+REsNG+RouM0mfKj2xf5scoYIxqA5bnbW8F+RY8ys6D/VSQW3hHM1H9bpLbd6wFd/p8WUCLX3++pjmWIJKMa86+cb1laHg2HW7c8YWMde1wvo6eqVCCLe6A/anVqHOkTxei86fB38I35sb2zc05oNNANZvzD3UmfBZa32P40bgLPGpi3anAV/R/bIZ8llbcXTaZlG9pfTgq38zhj7RARhRVIL+i5inekLoKNpwVY+cwB7GET0ZKyW9bFc0SKU9nD74e0ySS2oItlq3LRxUequmANYpDWBGTP6dk/9bs5faNqxMKwrLwLapuvYHM55aaDqqnzZomzExptxj2+W1Q35skVpWJAxg+ph6qZc0SLcZSGsIvUIdXNasJVtWza/zn2UemhWstXhDi5O5vk8Jiva+nttAwsSjMfmARbnuyPjY8Xq01p/q8vbml4mmLKLzN52CGQRd6Tf9WiyF8m14De0vj0PsDhnbM8JULDumAdZvF15ucA6Ry0n+7VoB7OaSR0Rv0znEdoi6EMYL88wViez2WTvElR+8jDOpQj9VIaU1QxlS91H2VnK6NxPH8bpTPAlqM1QXmFiGjjdrN6YTYJRI36z0n5Gjg6lrUPx+ed5WxPxahjfhvFQgP2Cg1luU/BrHViGmAJ/0QHNmFLo6xyUyeW8gKLLknmDA9KVVVqG/csOZrtKwW90YOkqBf6KA5quUuibHDQ082vB2N+8UH7V22WLsy5EKpOZulndeCm4VY1WLL/uFCOjVhV7gCvYymebsoyLHQIezubLFmVkQK3+QPYaUPbyZYtCh4DKzASmxyxStabOG+DJA/tr2Q11wZRtbYXLblPcSNl2BOngz20Vxtx4P1nFR20FkRX8wZPqL2zRujCUP2bLLbZD/IRw+BxpdVL94xzY9F8lFhTD0udtVZ5xW1VR/9FV7Q5HA9d0fTqRX3N9wdY4tswUAv1Pc1CrBIC/aMGGjKEfRqMdhPMlC082fJqomvpxDmsA27iz0zi6V6b+PJP+ExZsfr7bUH9gS45nN1P09D5vbzhm0JF6d0H9oWzySeH9cy0MF+gIR5uZaqm/4p49HKPb6/091lJ/KgvsEx4K5G6F5bhtvPwfkwVpL2hDuapIK16cVazSz5nMzmH6flxnpIwv8RmtfjYH69CK2+ZX5UCV7OL55zTBR8ZnsO7Gs8ywWngL0fRcFJpbGaXVb3IKIcJofBeD3yaakoHkV8gr6rcyXonxyS3z57V6p2axJJe0HapUR/1OrisJQU0OZJbfnces9ynwn7FJv6spJDW5EbxHgkRc65gyuyxTO+rL1eN7cx2E5gFuiJLNSubRrhiZP8tYrWakY/U2X382qzJTgYRMoFG921f/S9ubGuOKv8jTH3JliWTiDdnrnBd7+m8S2UhwARrq5R6Xmiks4MAP5L9nkBojNXEB9SpP/XMGN63ZetmH/0cGpb2FfTWDldE6Jsuwyr7q6f+T1YlLlt53vNJT/zdXxTDVqz31P7x+GpSOMcz6v3l7qAduoziIMVZZP9cnFnDoY01H1X/TBtpFX5yxWFb/k3kxx5ZLvER7uybs9aDVmyxOOFAv8dRHvTGL4ND7uLdp9RWYH0Tcfm6frbHJHeBfqlf56oe8ET4tintuGN1vcD/kc6NjmHOuKh6wRr7OBS8jMBlauhv9HLfFg2jSQoW2WGpEx9SbZXXv7RtyH/TVf0ja0k1MTFGW3BcL6p+8+008Wp7ncehHiJH6gKdelgOX7bc/Fpl2C6xYCYQHW7NplHwa5P2e+klXX+5vc2oqQTBmltRbPKbU1lTH+wez9KL0Jb76eVch2zzXgizE1zjIxuQcVsyo1fs89e+xRqcNPMT2nxW5M+pfQkSyQBCDY4P7e4tmmoPyBUeuHs36AxHFS331AgcLzokMOYnoH3GQFp4Fu8uFejQ+sAb/lb7+UVdpmBftaTCHRoNe4auX+UYJ2pP7E5Mdq096eMcGjLE72BvP1fymraGBVTkcRY+YhAFa9NOyjRnwbxGsdAsceybnDyZ+Z2geNsgs/feL6lssOU5b+5wZE6R/9mKpCfcjjPm0MRFVWlE/7JsHZtjpD2n1vy1KRyCm2Ye1+j85GHEu9lj1AncGivb2CYFJ0NFddfyoPxhK2GOP7hFpdYDx/8/cUsiJrz2ZzCh+0RUTWdDqS9xDm1Y1UyNvBIxU/9lTX06qHEGz4X3VU/81gdsmrf5BjJH9mqe+gn60WE2VoawDmfhvWNlwqg/GB3trWAu0Ub3aV//bGmQqZKhJxWt89YNEzNgJUfQjJmNdmGf0zadVxixyqB7PSrZ6VZab3dmCNBx24iKgRS5HJlrMJJrV27RvTS6/GGrRgxgLWsXYTc3rXIzTdfMQi1bbGzKe2pAElOtJXMlW12eobAclOctuAMJD8mWL0txi+c19jOgx6lGHYRb1bpYVGpb3JvEyH30x1KLfQ4xhQOzffL2H/tQT1RMOgSzis6wQQmIbwGL2Ef1t8yCLh94RBDOTEIsb8zT1xHmIRdsaGQWRyHasvqb1t+fKFmPbvrsWHSAIr27JirZ+sIOaofnxWaJMZg6ZqvgioEXGDpq+J2vMgVbsPGnRIpyzY1lF6lYvkvZg3y/RSxbl17V+kUZyRjdFC6h7iY6NG5N99OBe9QtsInI0CvdYWruIhkl9rcMjZhITsNhSb9C2x44IJw431yUDwV9ziEwU87RNTDc0Nv972J62MxjcQ+Q3uM7k4tU4qdNonCyuFTZCSyU15c/31Lt03z1ZeYGn/iDZJm00WMA1MwObbpMsqvfpMW0JyFE06/4rWv2hifWODr3T+4JW708qxFsRa5cgwOUfJXWZdKsiRUYiCF/U6gMXY5Sy13Bf1uqPDQLKYQzafeovjSz6ODZTLphEju7WTA5gpTFOrEyAbMmfsv56GZp0idxkPk6qv80IyBWVUHgQAp/WZ6MLROrOnEGy7/Vxg89NcD8D2Ztau1NCucj7H7RwKrspUZzd1WhnMsVNJRAoA7xP/2d3lVHDi4jVCz39X/SM6ZbAnkhevc5X/5UJgdHdJhcdrFMYxXGZYBeJcpKHkR/GCYln2bnhhQTBtqKBIfABH6+GmOVuPcIAG9BrCuqlHkrBPMssw57TJLacn/biIXsEx7vkwqDVH0cjGe6rvf42IzGBso1OvSbL4z0FfASJ3LWxOOq9BfVrOaSae8nwVu+coAAx3b+1oN6WQspYnYM9Ria+9z73Y+o30jo50q5eCPEAqPmox2VGUiMwKnGcC/qdeSib4ge0+u0U1I6IKKDLRhlfVyDqmdQIK+ZaK1ZvL6jfSeEdZnncwFTA+KdTaLg92QfznQX992w1bMkXUJHz6uOe+rxn3imE5saIRa+ez2W0e9r4Nk/9uL+FjjEtmwklmBwIk//LO1QD+MsFLnq4SGJ9WpsRnGdjGUgtE/CD/hSzkaCfQt1X1PN8scmTnZ2QGTyIRVKfLKj/5MEC7ZKlJuDPeuqPHDjxqAT8BY9p3xuyMwuipaIeKKg/ho/czTTdf9BDg9jQ8T7f6qk/QQ4cB3G7dnAm1AcK6i89q6dok1FpxvOARkTbYoPaNq6dGcMPFXCpphZqnYQV9TfeYLJNiJ1Iep72Bwvqb6HNhRCTkH++EeMp689ab6cE2XPW5+Hezgrnc0Y1S7PZdLhFWClWHyuofzSjMPNphvKpgvov+Nd7uF3p9zZ+AIclAbnvazxXq/+JRNAnLsViemIeFXcO/iDa6R+MZnMVjPw+XORpHsb/zV6o3uPhyLYvWeV5s+GMAa8oljxmOr3a9DYZYXZE8Pw+m+Y+RVjQewyoX5vIR2iUx8nGTJZfF6gIBQJqWd7lKv7XKnVDecWhO811efoh8F4C9Or202J+t+FyBYcmxV4KLZpvX68126ftk5QFU14tlU85wKIBmAd+S7jEOODGp7dHAm+BSSUCNMRhIrCodWwsawbI/5gWH3ItxUZOjKwALMw1sdDiMG7aZra8YPutuK1s7rzjMblYKM7u8h4Dc282ALJe7oWjrI3sdx8f9LSerwyouQCps0bTsveWyfKsuPWV0fgwNA7VBlRBxB9jUuz7B/g5l8MRY5kaIYvxEU/5m3MQ9ch6NZS3PMhbHX5gp+VTw+tt+TR39s7Ny4DVRsW+WPOTp3rJe7mCfe2WtSpagHsdl7ykl69e56D2GdriPDB5grY0D07fqi1vVsPqak2Uyz4DrJQ68pxpJXk3eDR9xXcs/byydGWY6B0e8/F5HNP7RUgnMiTLx6VpXXYR2qXJXb7abFcASIepCK9wQNcyhV/p4KbHFHqVg9oOUvDV5st4jU5PPo8UtDvVQPq7xoqy3OzK89jcLF1br2YPNa+T15hJ4XqpSQV5g1SlpYeY94rps8obTTF5vniTKRk2OtVmQ7q/OXv3+FBT655gPqx2+JHlI+Q9WtbRoxLdlQ083d2zVfKx3CrJowTUs1TSxQCU5cs+mq4XwQZ0n/LK5OwOTcMc7U9Ae64uoEKIsqpnOGZ76l0FoeeWckeoctpnM+Jsn99LM5KfguSD4gUgCfnhAK6yV8gXkRY3DvQc2c9cRNbhBCBkJGOAmEmvZLb1lusANJWR+hykLqoPqMzI7LsK4cyiVmfRnnFhlOfeA6rVmv1svCOW9yGyzr6YdparD6jMOhMgAYSkpwSPfWHcN16XfRf7eTA4MWPDG8yYmVd/RtCWMzS79pc9VThHPMQUvuKp4t5BzF4tpX/y1IIl3UnRPT2TfC0an+GaARtrETYTCh6e+wxflI0gq62nJNkwJngpFWEuhqlZB2r1GFSvkg9qpHEQkZp9LdmxH8DTDi8fFNHJLy7m5O8QLUEXJRFyEFH3mJWPCude5rSjHeUVx8jIbgawj0sCr6yD50z2tobRWt9+KKBhxetv55s30obfQKT55/7F8qXxVCEz1ipvrLX8rKhdrbCf9ELzhwp6sAHz1cZG0K5iXaq1mrUptsKf6yF7YqS8QjIEtxif55tdcNMU2BL9UXSmv33B7e6dKHulUpijWRHhLFshj+3wiS0h6/7I0oLw4deJhX0zR655VdoWZzKpz/fVQl5Ai/tTefnGGcrQigmyqaU8l8tzvFiw50twxuaxXTNYt4VXafsLHFtC2ecad4QB+dGa+YiWETuJTn4yhojZDhrloCe/4wIw37p1iFH0meUqJw9TXNF66A578ntIB32hr71qDjxPBBoz4elFvpJTMHL7JsgdwVSePBhmWRhvQ8EvPqV8zV341dZdC+TojKNhP5PqvreqzO/pSLUMuxdUUCX70wqv1GET3AgqaBUo8vXYsGf/folU49F02SKlp24e7t5xm6BwGgZRvvtyLku22yiXOgFZ+yRaNjAKnm2WGay5H9zY/CaRAdTIgFzsuWH1zj9tSjIdBNzSMLUVzWKpLBsrnagwEN+sY6Y1m98KW78Th2+AvTCo4ZiYWuelkyvCqkjKeb/5zrik5OQ1mUoUAT338LJNBtZnaCSeLVk3RCOZDqopq95y6OFErAfi9jRwE90X01W7Wk7/0oibwnyfMkDW374DOUnk+xuCYTp4OQtxuG34KVjOOAv4uhgbtqNB08CoZQl27CMj1s/iLnoGcAkTx0bJvfRkj+2S6dSy+vAe5u5r1GWde1pBWG5XzTfuVLklE67dp9+8cijm1T9Z2iylOAWJdJAWT4ZmfhaM13yXgBZb93Q2DHBpXczzcmjAR8LTVeMYr5xqylt8ckfb3VAgx1ZL5iOGxzl2ySeVjdxOVOX0QdwwyAW7Mab2kX1SWUHjkkp2MxJjjUtE4+RTzw/6XpeJ3ndA5GTNqax4T6a3RtRICGNwR2TRWqhtHRB8sNdsr8fsDtmr8JZE+smbTPlJRNQ4IMQ0pVRYzRqogvFgrXJ0G1lBp8cMtrJezX5r0Lc8jO1JxzsyImvIvAmjEsthEetbVEcuwQIbssRb0nACZ3QG+GZfLQ/mQW9Br+ZBIlGMzFt9VRhM7h+z2eIQpp0V0cEYWUTj7QsZdEHEg5ins6aN0hbVorzGn8aG/+ZOjXp0bqmS7UhSYQem5xkQnrTUmrGqolEGxKGcuBLx6FSACcQzPthd3aYxTv5GUKKaXCG8lDRU8r1zVTOfJNRt82VPPIx5NM9WK1uNp5KvdtLCutftZ8pBUcHdaT77hbdgJoFbrziUfVMzWzR+O2pkK2L1Ll/P/6gwZmJxbOUTVXsgOwOKgIsp5cBQ8RaHWQ8dwNzos2+loLmre9Q2rcjd3PtsVZ0sYIsLeVG8tkgcHQ2QBuLl4YTRbmFPoikbXAkAoryY8rbpDh8d46oy1wz8fWzs5cmYMBNE+qOS4UJ23b7LIQSiDg5BPIXsx/glg6K8mzI2xAizNBFnBuuAqjbxkFNIfpTcoLO7G5y7VSHDEe7tgHKjDM097KGHCvKjarmpp96QactPkhOIfXaxJCGd0SXD+ssXXw8cyTrEN+DWnsjX9pQ4J52tWH7XuC2XerWsj7J+pn2L4Fbcljo2MzJOJG5EcnwetinmTb2+oE6YCXPCfMBTl0HOdd+m95mNpyUcc5GHiRx3p6PquBHdz8EL0BXzpNU7fHXlPMisbmbvKtNZeHa435mIiJHv1Slo9UJpz5wrltU1iNDOeUwzfW1azHTknb6+7hCrVgo5Xq8/hFBNVP1clHp9Eq+/YZ7bEExzYH7IPDw9Nt84Dwf/lHHsbkqVMwRDIpUt86KDsJXb0A8FK/cTXvF63GqrROZhjiqeCu5JfsnGBnGqgU+T+RRihvTdq827e7iJ5L1WeAeJz47awdEg/kGpAFeOKkvqbHRB9vlYFTXLw0BdX+/B6mzAtH107HkH5jd85scHDNarIyV4tJaTrvJ/HaXZuqdX6YqNS9xAiyw2SBrrPVuOBl00uTqArpeCVi+kQH+H8PUpI8RCbDt6n89ZNUG1iFVkeUJMjIMmBCx8MWCftVc53jE3hni63TW5NF7sz5LXzbaicL+8REDnirs2pI0Ni4RQB4lQv5jiV+WltHsSvbTDukUr8zDx3s6xWuTu8Ai3vmeGqKvsb5RXEHxu4o+aHjatBTcCOIbGuHcsnn9gRgVUDttoUeiCsALiQAJiNnZAfo15w1akD2u8pQMzNp0MWjybhDXi8HlWCpccX/ES41uYxzzt5HZYQIkUlzZhR+4E8Zm2++Nz/Viu3SL3YpWtZ59r15Fjm0XomXIlkgVrItq20brVwkJd/kIP2+W2jUw/QWlbb4jWJtt9M54t5eXAIZsnq91+Im5wmKKltGFeF7UxrDRf5CzPHcZZIg7gECDYN+sXquEh22LePkHF3RGnptfrMPEsLfzwcywouXcwPxsi5/rVu5MZVxozV/RiDoEun9iAtLGdzeLElhzWNyPAPFsDVE1M3WTs6gqu2SqGf58z7aw6kJ8VFdM+w8yilUxD27v53S8O9RrOJbrYmezvTXDxtrklEI2EH2xdzhoCQ+HmYYYSqjd1l4wJXCwqPjbnskswIZV5Rmzs/1/PCKSsRTnEjNAFH3Y2WRKTUNyqMneDZyybXtGiNywaZIdxC+nTpWhpWghFkYH46JGEQWQ/I9ClC33Ds7yYNm5ELOsVXcJLYw9iWgah9Iid3cKPcuxXpB83zURfCSh00q0rdTOxvdlVkmoHBJHMbZRGFMbdF862iF/Z0WCDJ7grprPP4EiPo/vTgneRMlREGXxyidoAQWmG8YbFrI4b0f2HhoD2DFLmPitBnySwMRNByzW+UF2sZuBE1Ig5lpLpRR/uNmEvnKMDd3FCJwcumF87qy+xX4i1LZtljbrE86vf2Qu3GswvZGSKXdmcsMKkBaKLkzytmdcBfug3bS/lMGnTNkPcwrgCFazmtDwZi8+N4lR3XBsUjWGUo9GI2HVVIAsphLO5gSzOz2nLDFX58q14rhjMiVGVuA2xWcIg9XqVawUpePNNWQvmYQ+S2TdUEJi8pD3DnMovF9ghE2XF+IYyOUSk5aef2IDYMJZI3PxIPVE6S119DqW6GBxChlvyL3O2zJMvoPZYzZS+vzWvh8lSqHKelS93erHBT62snwzN/u6b6bq4a+HoEoyGKUeOqGMiVv/EgWuOSWP8iYVnmwt3pwm1NZGlJck6WKBRKq9YfcXXi9QRAbOfiiEEiCJgchA4+x1bWceWvU05V2WBMjnsyNkhGpQJ1KABNNmI8CW3ov6MKWX9BxIJNEE9tcq9VlrSXfwBOhWGvIfH9AzPiHMRzU+IwqnnXFGC2xL9eRZLXLZte1Ipyl5s9uwPs5r34DNSH/FVthjUfXppskVH5xgnxm55EOEnRA1L8wi2APNgttBYfdTXK1bEybbJnZUvH9h1tr5pJzlWH/f1Mbqawu2KOm7mLMHZsIaAlXBiDt66xEZH8/vk/OJQEvIVkSwm9fJ9SpnSxOqffX3Fdm6Wvsq55dzcfHzNV1ex7E9Pib4hu6vl09lrnB5CZhsl0uqanElKTFusPu/ra2dMsDNFX/DVdVIMUyl+0VfXp5NSMltHyETdsDPZPoib4w7Iri2HkN10/r/uc/RIhhdmO1rJUK0Ix5/09U3nhpfY1j7t65u3R0OmBzGtqIearqAiL0LQs/vUwy5FWfbKHPVP+frhqcARgzQORpE45LYrTAVU7UTq/ngyviBK1E1Axmsih73E6nAAiy1zeAAhmkNorr+/e9dBNL2QizbPnTcaHUJAXJdyM27+fp5u1brrJiiEizZHAasSs5OL/9ygV/rk9LWPAcOcbCXUn1tQvtRa7uN04j29NULPTeTQWR3WkZ0TfEVGzywSwjBLx/raMonuDm0JJ8HeR2HKZsDb0Z61/fYqDM3lZADcFP0ZOZHPoirQ0aq4LEW8UblGWySghtq3WVfIexAC7YDNwPb2TePFGFBXvhrJoaSe3cNhqTIWaCAKDhKdSwNyWIBvTpmtP5xN9jlqQCJ1XqaNyR7nGjt+b87KDOOyrARCnNKCQI1rYRmaxx1nVF5MUKdsFHN1OukPtmGKG8457O15ub+AFjN4naoXMn37ST/qJQVsdmIXWnmwvfRULyqohTqEkYXyHilY6I3Od+VhHkzGOJtOK9S7PW3UOil/g3D7UGgLQ5dcBv/iq4cZDVIv1HpBcqv9GFtlt7Ob5f6uP3JWc9G+A1QFtRRLHDXE97Q1y0m5I6w+Qx1JymWcCToz4GeqFfOuDraL6qjJOo0lEGSKa+nZ+rjtuNW/MELUAE7Ec4tGLqafV9CX5QafLonnF9TlO1DatKdWhnGFoV5F0VhlbFcXmgezWEQx3h5h8YlTyR6JLlxpEFuI3Viaq9AUYmvY0xFb66g7Hoi12j6rXl7Q1xhQO8qBrt1K9CJWLy3o66bRtjWdYfR9BxEa5wLsi+p608/qFDXcxT0nirAGw3boN5i6gDASdwMit7d56iH7coC4MN4uMY8YI9BuTL9JwS1rZM5Y8rnpm/BzZxfkMWnVXorWYIkRPHR7NNzfkh+Opca9HZ3h31h9qaAfDndI0lmQ2E7/TxXUI/C/2tE+Jh0hle1cQuyRwSXQ7fnLTcYhe3S4Jr2190TjLCzFzmm0hcXqFQVdkC/OluQJf65rjrdnGDhTlXxuDZKV4c5OefdAIkQrGSkshdbWn1xQ3sB+c69BNYsGH8O4zFWhVLB5p9lFW6oySJYRKsnwF7aFelwyPydGMJ1d9ERAdLG4ReBTFA1JbQxZeNPt3Qt0oZf2L4YtXwp5nQHJTB7ZvzR8RcaXLAxvYcwQkhFC0m4HspgZo5NDrF5Z0L4UV6U/QStsSa5lemjMUyjuXwq60E7eGxudVJ7744eVHonZ4FTyV8R1ilqR5egRRyO/YWMzeppUGjqvLuBZ9u0WLtgGqFZWuRQPSrJZqrVasyRbqg478mcIyXmlWrVkrvXMtSkZ+exkOwjd31sv1s2l70L+wcKifdAkDxUoLck9XfLGYbna2ISiYB1JWGlH9vifsbT0zVlKObF9F/N9L8z1vZjveynpsDS2F3xcmT3IY4IV5e0w5a7EwYe7nH4sFxMF4yBb+LNUMTq/P8VKs7Qt6I3sJXvuCYB6c4GN2D3ltZAHuOLaYWWHYrEt6C0FtSwdy+gt5FVE+4OUbhrVV1fKq7/0mtv9aWxblL+LK3/g1L4xs/eE5uq9ZV6j+ZWq6Au5QnBXt1ST+Sw2mh35G+Pmo4ALXPyHvQ43/BQW00KPe/IEZWm9HaCCbVNBeTlfziMesX8gbsVM0VF6ITlmJ6+6Jtwcp1XD/m3kE/BrPg7YqzWbp8xLhssagfvM7uVVuGh3OxuCeUUmEZQ8SgupeN5QUPK7DwcuTc8cyMZrLgpSpa8nM2Pi3syyvc8FJ1sY4ODCGXis3lTIHtOtJfNGayKJ+MWcdWip+/Ga6IrkUyoym7iahozcp+gBAKPcrwULJuc1/nV4LEnTMDJv82k9FAupx9Y24qHNPbNJ8YXIpvTDDZlmyGa7fkeO8QwhoBYPWD4JJI4BxM/lcOYGYB54K3WN/PXGkIB+IDpj3s2Y6wZ7F01gYf4Rp7xy6GxkjxX9dbNCC0JFXi8JTtF8+dUUKS2EG/IH5V3JrldXWEJpmuZzmss210tswRH70cu0vOLKiWE4mj2udN+3dPbAfuAyfaV5whTdy8vLatX8O8vLL3qIeYU8LDHPF3LAKzNgekV/lSGLahOLYX3KoK8uI3J8iln/fIvrvh15K6n804F891mxYNpN5gOBDpuC7dnXGv3RJnse5xGnj7huWp5TyA9HVD25nC61O9WyGZ0OEQIdkvUapU0Sv+Q+oV3YkD+8Vdy4jX8XNm7n38WNO/h3aUP+2Nbyxp38e2RDogYyXyvpzfjRtSaX5ZI7hvXByoRkjwvOiQ2BXsZWQHL53MX6FeaR1ZVd+feqetDokl5dk78+eE1FYNdWOvx7XUVGfP1adb1raNxArlxquQE8pM6JjvRGTBfJTWLAbw7q/PtQUQYj+4eFdRSLzMOFq0cw40LnkXfxz6Mqa9L60aXVVWHzMe6JymPb0vPj2jKAb3HbwuPlb2CTfmsZO0T6BCaO5NvCkvnDmE88tSp8fjsGl+SW0AjoVhnMbQK4XQZ3h/sji09aNX9j8c7ViszMk8OWsZRPMSw89bRJntaqljt2wN8RNrtt83XJp1frMp7vJI4jI3xGrbQayLi+q9pomb/B/czVbqdj5FKy75bIrQr/7mEDC7STTF6FvJVhIKuphJkmv9bsdiytda4Bsd1mJjfq4Ahb1bVqUKvYL9afrAXr9n3YKdk1ZCg10eW2/ERJPSvRu4a9Y7yj1GqZiz7b582rpQYmgVyZqGOrFjD/8CDCrzjDUW2sCYHAjXbNzfQ6KitfWLd0Noho2Vw1DEpt87dJT+bfdh3L9P6hrPtuvZEq7SOJDRAOcJQeVanKE/Sm4eExley7649NJPYEaWmX87fZmXiik+stkqJWwueteGDCxW1sadLrk1D9/Of8n9xuniZ5CklC+Knkhbbh6mkdeV9H5hkdvJtVo2SldF51eSMon+Lqlrwnn/MuB0a1faySqFYBpruOk2KSz7VZSGBii0W8i6kaLCUTbvtcTjCOhOU2t8YWumI+iyq542Gr2kj5OgHXJJeToM1GK68QtbK9XtlpB4H0Sv4q5nu1aeFXywhIrxH5WdC1wiDpdZLaPq83nCTCuoEuBJ3sQ4Qs6Y2SOlI3idRwaMiulrjqFrxTtabMVq1eat/VNS3q9rEiOfSsbsbTNNiVaskit9LcXVaxLHtH7R05ucvmbNnDMpP0cDclj6iwBB3s0UG9tYGRlR4ftxaYCPu3YMjsCn886yhom78D/K3VRggbttW3J8vudtFns3tQuDNMDNt3YGyYHPuC7umYHK50kuJ30lLE/V0yPtJnJkeCtmgaWty7lUKYFG6j0EkKt1PoJoU7KGwmhSdRMKoqhTsp3C0Fw+M96RZwr2wmduq+O9tqvkfWr1vaFL9XpjHoOVndh0OwbqxKr37oN3KeHsSDsvzO2nw2U8sZyJxNrQcW4auIJ/N+PJl8VQAcHyb90O2OwOUkKnGr+oSD15C41eEYgF8Wt73lfhCnPPcnF1T2Jxco6ArRT/Ea55F97GGpLNbjEn+pgZJXvuQP9AghWgupzK9UOk37uxTK2mQEIjUAvBLmNf2ZXXY8Kc4dT2Lq3Ztj/L9DB5Th2OWLhAsNYmk67TtCK7o414N4e8bvlL/akZ60UD9mn4xO/CqvaqbUtzXJK7rCRbRwKWdC7iM4uudMjx/GlZxDM7+szGb148zqRfUBlUyt10+ADNPR+yj0NvqEhHI/1EzQE03Yzderd3kXt8gx8AkYCAj7GD/XxSKjpEwDuar4DDjxuL8f73LdoD7NQSJIMRwYijsSzrLIWbUQoC426WfzVfRjZPU5ZDXq2x/4ZnQ7UpU/JeNyh7ioQcfYSN3FiJB6aXzbD+8Jrf0tYOI7vVJLPJBis2FeCTFrlBZkyw5LmwH5xZLUL4VWSVucRCJONX1kLbMNdaIMICjpyDwVN0UdzH0UkLll0w+owAsw3oCeI2jlWSBeNpIfAJxQeuY+nGFKXHvZUgPJMXyJyMPA5wnUlh8kcAY1GymRiR5jDiQ447HEcyHFpg1KbSnfBPWqEnGRoNyDRyALyWmnOmhyprd5uSCSn8PDavZrKQoc/lFGW8zhvF8jOInJyflwU+qF65L82QNdnOGpo8Nj6Y5pJrota3Wvf56kMIjML183jYIvq+Klqdhq7TlS50yRe9kU251J01//7BO95IJtuG9uEu9PHt74Q24XiHYzauxDNNuWVzrFcxd1xY1nQS+k1NfEBJqfnEZJB4xdjthYVW+nvzccyUGaKYQLLs+IHeZoAvlKQRcPYnN6llPNtv0BPmy4PgyFtiWuvcloYCHQlKcJacGON5Re8sgGQLXgJnmLalsaGFFV12LHABtSoE0slbYuVl9neZuGCSDBVl9j+RpU9Y0ExyyHZJNRmqtULpHkXtgEPjMUqHClJR/HNPLSMUMXFK49bNtYPbeofRGOaYSax9u7XAttpjJmg2ME6qt0PXWc/QvRgsiSfx7m/v8DFwgAAIWVfWxVZx3Hv8/pvRda2tLxpryNy4CNQVFxk4xAb48wzNAIhGEgOOMtL2EotOuGzmXKHkCgLxugThgqpnGSqWDERI1BHcc1WxaRDREy2BS7OecYxCmUyTCgn9/T03v/MXrTp7/v+T6/9+f3nONcpApV/+30weMVtcvmf6R1Teui5Stuf2j5mjvun7dy/aKVH23WUA370KnccI3WWI13Dhy5tzIVGSmTcVKkjMve2bLyc+tXN29Qzg18RFKlqk3wC6JOv4okpxBN45WJsoua1qzOT/9f+kMNDnYPmmEUDG8yw/nNG1bf39y0Lr+wed1D+blNzZ9vekA5/X83OxwJkLi5cuRQk51/d37+gvzchQuWfHjukvzS+Uvu0vDtUm+eOidvlXZFty5uWdGyoUVzWtatUh9e3LK+qXlaIKa4/+Ih06m6aW3SpCzxtuuNF6PORbXTKpQxbgDuX8wqN4Q/qgr7GbheuC/JT5Vz0TZdmVjmXW6j4ll0LtquPc+V+Sj3RemataZNj40v8xWpnwr4o58p8xnzs9b8tMdP1ZT5bOonE7Xr+foyn0NfC+WyUbv/ysYyP8D4JvPfruRkmR8Ib/5zUYffTRf7+UrjG+QGRB1d1TPLfBW8llncDm1cUeYHGU9c/BS/0FHmq+HNTwT/+I/KfE2a/8CoI5l4pMzXoq/E+tORnLxc5gen/clFnX//VkWZr0Pf/FdGnT3XRpT5G+D9WlU613f8faOgiKmqrxh2+C+bnxj/1XvGTJw5bseVPx4+/vqGrsqMsleqVM3pV3HClRqggVKNq32EyzJ4iPqOd89zdmx2RHYc1nprs7XU2metsrZYC6xcK83KsJQtvaE4Z8add26T02anLU5fdtrqtI2Zc2pzanfaT/G/cdN11GWOOb2ASqQ9kcs5MiJ9UhvUP6t912Zn79Sx4ebs1InWmr7rM8qex0Y3apxudjjkyZgK+8fFd7pFe5zGqNaN3AQ1WpNUr/e5rSjmqt5P/32xIM1ojPoAnZN2NyD7QWlrRqPacxjobEG+UOC+A7SY9QpEE0R8GtDKOs7aCJE8z+62gpLDEI8acRDiazzsRn4Dwj8M+A5rIesghCYAfsZyBcXdRhxpUIJDPdEg/5oRqxoU90Ige7KNKXFDIw7RGGXEM+xMgMgSaYoRt+JsOsTygnpuh0i2snNHo+IngySPowHInwuaaFSgPoVV3ajiWIjisEYldTwgvWhKTPkAyjYwEPYlZC2EfldQl6l1F5R/L0RMQV2jcUalSMLtCEB+E9I0tJYuDUfjHmSdETSkZxAEMglVAvIOYhnEVfpAyxVfog8bIC5AxFsg3uBhF3n0GPFtHl5G4xAbpyCSY4Dfsl6H/DWE/oXGT3GcpbinIBLKTfaSFJWqDcJbHetwaLIxJVRHcoORpxqIYll20PoIWQ/hLam22YpfQRZnEaUbkP+ltD9IiI4A5D+N9KYxFfD4bKYOWcCHDjB6e1n3sS4ZUUWEm9lFalWB4ZzJwyoSCmAOGc5lTTFiAcRQFg3yGQhPh3QB++3IP5mzrwNO4MgSOgHhfx6A9CzyTYiEI9R1Js/OdAg+dBbC4iOZfjmtZhUnUrPdkADsziTX0DGgpYBeS9RAYDYToATMKmwFcB2vLaYMCExwyJXrzBDGOsrFipQfxym0Wjo3sj0ZXZuZsySc5+C0jItwBfLQbEo6DaDHyYEgKaktgHAJVJyNxk2AUaTyDut7+OCfvIPcCDHHotTjcBOEye8T34B/Jt3xb7HjG1QM48mBdVkyV7Edb8Skgor1pMtE+w8a0cFYccXig0GS0JkApHfR/ABEXN2o/ORG9TBiXSMhusZCMF5Fyo7/QfyERgDI/SK2dkXPQwxC1f+ZZIaidpLRHAERPwsYBUE4JBp7A5DvJNx7IPQwBCa6l0tQbcQncMpN8B8j5csWZQ5Oe3gw2U18AzQi3XmMhapajLgbtTt5WM26BUIPAqog25Hv0N1kD+AMI3UgSDLsDkD+BPKfEMmrqGOSnIOYbD4uQsxjXWK1FnTGhiGZRIZPk4yB+IeoGUi2cIvz7MyD8FZmBanaLf4BnpUDjCHU23i+l7OPfw9gGJJDQWKyIwC7Un0afioAE0XI4OPH2ONUW5AWxWbAwpokj3Q6nk534jfZMdWMdfYQjmw6HB3OQ3BRFddDrCyoGKaD+J5hiEkISVEnApBIOWgkWXbNhKKCjyJVBqdWtkWxPlhYk+QhevVvwlhqBnSE1AL4A66vIi9CxJcBGbych7RJSjhw2ViQQBImqZukiWWpISH2BRB6FjR4IwQT/9nUh18KYU4/jrQoYV4srMkjJGSAzPp2/C5YVHlRQWDr74JYx7L3WWzeq1k7We9yEgnx9TLNPxQkBBkC+ibJNOJXAZjE55HBB1WaUys7RLE+WFiT5KFP0a3Y3NjLJwBOXmLo+KWgtMV7ydkNNRQFwEcMpe/OLoPSFkD7HAb+J9y3EbDhGx+8FmchDbTDzGAr+UUKUmXMinbNTck/GSjAN1Ol5IUUFKemOqkyZvat5IXPO9PASIAylFwCpS0+Cm87DPx9OPtrA14TgHmNz6XAX8RgDCDeD2Nx/AP9oM8K+/B1MO1wTubI3nj8ALf1g0fTxqTKmOWtRRfQTniU7fV8MgVdtwHMrDg6BakyZhLIlPxEwGvY+wkAU0pq+sEx5tTStq9YUE6t1GkFd1Xy2niJNhiI9wH8lEIZlLYAaGtpvw8D5j58xkqgtIV7Ds2yMiqAoHSdvRIobaGt/wA=(/figma)--&gt;&quot;&gt;&lt;/span&gt;&lt;span style=&quot;white-space-collapse: preserve;&quot;&gt;IS IN CONTACT WITH&lt;/span&gt;" style="strokeWidth=2;html=1;shape=mxgraph.flowchart.start_1;whiteSpace=wrap;" vertex="1" parent="1">
          <mxGeometry x="1040" y="160" width="170" height="60" as="geometry" />
        </mxCell>
        <mxCell id="LRRAN91TrpEPsdmhjxqb-114" value="" style="endArrow=none;html=1;rounded=0;entryX=0;entryY=0.5;entryDx=0;entryDy=0;entryPerimeter=0;exitX=0.997;exitY=-0.004;exitDx=0;exitDy=0;exitPerimeter=0;" edge="1" parent="1">
          <mxGeometry relative="1" as="geometry">
            <mxPoint x="1210" y="189.44" as="sourcePoint" />
            <mxPoint x="1351" y="189.44" as="targetPoint" />
          </mxGeometry>
        </mxCell>
        <mxCell id="LRRAN91TrpEPsdmhjxqb-115" value="" style="endArrow=none;html=1;rounded=0;entryX=0;entryY=0.5;entryDx=0;entryDy=0;entryPerimeter=0;exitX=0.997;exitY=-0.004;exitDx=0;exitDy=0;exitPerimeter=0;" edge="1" parent="1">
          <mxGeometry relative="1" as="geometry">
            <mxPoint x="900" y="189.44" as="sourcePoint" />
            <mxPoint x="1041" y="189.44" as="targetPoint" />
          </mxGeometry>
        </mxCell>
        <mxCell id="LRRAN91TrpEPsdmhjxqb-116" value="elderly_contact" style="shape=table;startSize=30;container=1;collapsible=1;childLayout=tableLayout;fixedRows=1;rowLines=0;fontStyle=1;align=center;resizeLast=1;html=1;" vertex="1" parent="1">
          <mxGeometry x="1350" y="40" width="180" height="150" as="geometry" />
        </mxCell>
        <mxCell id="LRRAN91TrpEPsdmhjxqb-117" value="" style="shape=tableRow;horizontal=0;startSize=0;swimlaneHead=0;swimlaneBody=0;fillColor=none;collapsible=0;dropTarget=0;points=[[0,0.5],[1,0.5]];portConstraint=eastwest;top=0;left=0;right=0;bottom=1;" vertex="1" parent="LRRAN91TrpEPsdmhjxqb-116">
          <mxGeometry y="30" width="180" height="30" as="geometry" />
        </mxCell>
        <mxCell id="LRRAN91TrpEPsdmhjxqb-118" value="PK" style="shape=partialRectangle;connectable=0;fillColor=none;top=0;left=0;bottom=0;right=0;fontStyle=1;overflow=hidden;whiteSpace=wrap;html=1;" vertex="1" parent="LRRAN91TrpEPsdmhjxqb-117">
          <mxGeometry width="30" height="30" as="geometry">
            <mxRectangle width="30" height="30" as="alternateBounds" />
          </mxGeometry>
        </mxCell>
        <mxCell id="LRRAN91TrpEPsdmhjxqb-119" value="UniqueID" style="shape=partialRectangle;connectable=0;fillColor=none;top=0;left=0;bottom=0;right=0;align=left;spacingLeft=6;fontStyle=5;overflow=hidden;whiteSpace=wrap;html=1;" vertex="1" parent="LRRAN91TrpEPsdmhjxqb-117">
          <mxGeometry x="30" width="150" height="30" as="geometry">
            <mxRectangle width="150" height="30" as="alternateBounds" />
          </mxGeometry>
        </mxCell>
        <mxCell id="LRRAN91TrpEPsdmhjxqb-120" value="" style="shape=tableRow;horizontal=0;startSize=0;swimlaneHead=0;swimlaneBody=0;fillColor=none;collapsible=0;dropTarget=0;points=[[0,0.5],[1,0.5]];portConstraint=eastwest;top=0;left=0;right=0;bottom=0;" vertex="1" parent="LRRAN91TrpEPsdmhjxqb-116">
          <mxGeometry y="60" width="180" height="30" as="geometry" />
        </mxCell>
        <mxCell id="LRRAN91TrpEPsdmhjxqb-121" value="" style="shape=partialRectangle;connectable=0;fillColor=none;top=0;left=0;bottom=0;right=0;editable=1;overflow=hidden;whiteSpace=wrap;html=1;" vertex="1" parent="LRRAN91TrpEPsdmhjxqb-120">
          <mxGeometry width="30" height="30" as="geometry">
            <mxRectangle width="30" height="30" as="alternateBounds" />
          </mxGeometry>
        </mxCell>
        <mxCell id="LRRAN91TrpEPsdmhjxqb-122" value="Row 1" style="shape=partialRectangle;connectable=0;fillColor=none;top=0;left=0;bottom=0;right=0;align=left;spacingLeft=6;overflow=hidden;whiteSpace=wrap;html=1;" vertex="1" parent="LRRAN91TrpEPsdmhjxqb-120">
          <mxGeometry x="30" width="150" height="30" as="geometry">
            <mxRectangle width="150" height="30" as="alternateBounds" />
          </mxGeometry>
        </mxCell>
        <mxCell id="LRRAN91TrpEPsdmhjxqb-123" value="" style="shape=tableRow;horizontal=0;startSize=0;swimlaneHead=0;swimlaneBody=0;fillColor=none;collapsible=0;dropTarget=0;points=[[0,0.5],[1,0.5]];portConstraint=eastwest;top=0;left=0;right=0;bottom=0;" vertex="1" parent="LRRAN91TrpEPsdmhjxqb-116">
          <mxGeometry y="90" width="180" height="30" as="geometry" />
        </mxCell>
        <mxCell id="LRRAN91TrpEPsdmhjxqb-124" value="" style="shape=partialRectangle;connectable=0;fillColor=none;top=0;left=0;bottom=0;right=0;editable=1;overflow=hidden;whiteSpace=wrap;html=1;" vertex="1" parent="LRRAN91TrpEPsdmhjxqb-123">
          <mxGeometry width="30" height="30" as="geometry">
            <mxRectangle width="30" height="30" as="alternateBounds" />
          </mxGeometry>
        </mxCell>
        <mxCell id="LRRAN91TrpEPsdmhjxqb-125" value="Row 2" style="shape=partialRectangle;connectable=0;fillColor=none;top=0;left=0;bottom=0;right=0;align=left;spacingLeft=6;overflow=hidden;whiteSpace=wrap;html=1;" vertex="1" parent="LRRAN91TrpEPsdmhjxqb-123">
          <mxGeometry x="30" width="150" height="30" as="geometry">
            <mxRectangle width="150" height="30" as="alternateBounds" />
          </mxGeometry>
        </mxCell>
        <mxCell id="LRRAN91TrpEPsdmhjxqb-126" value="" style="shape=tableRow;horizontal=0;startSize=0;swimlaneHead=0;swimlaneBody=0;fillColor=none;collapsible=0;dropTarget=0;points=[[0,0.5],[1,0.5]];portConstraint=eastwest;top=0;left=0;right=0;bottom=0;" vertex="1" parent="LRRAN91TrpEPsdmhjxqb-116">
          <mxGeometry y="120" width="180" height="30" as="geometry" />
        </mxCell>
        <mxCell id="LRRAN91TrpEPsdmhjxqb-127" value="" style="shape=partialRectangle;connectable=0;fillColor=none;top=0;left=0;bottom=0;right=0;editable=1;overflow=hidden;whiteSpace=wrap;html=1;" vertex="1" parent="LRRAN91TrpEPsdmhjxqb-126">
          <mxGeometry width="30" height="30" as="geometry">
            <mxRectangle width="30" height="30" as="alternateBounds" />
          </mxGeometry>
        </mxCell>
        <mxCell id="LRRAN91TrpEPsdmhjxqb-128" value="Row 3" style="shape=partialRectangle;connectable=0;fillColor=none;top=0;left=0;bottom=0;right=0;align=left;spacingLeft=6;overflow=hidden;whiteSpace=wrap;html=1;" vertex="1" parent="LRRAN91TrpEPsdmhjxqb-126">
          <mxGeometry x="30" width="150" height="30" as="geometry">
            <mxRectangle width="150" height="30" as="alternateBounds" />
          </mxGeometry>
        </mxCell>
      </root>
    </mxGraphModel>
  </diagram>
</mxfile>
